<svg fill='white' data-v-6e1549f2="" xmlns="http://www.w3.org/2000/svg" viewBox="1510.724 16 34.261 28.99" height="35" width="35" class="cart_cart"><path data-v-6e1549f2="" d="M1537.078 42.354a2.636 2.636 0 1 0 .772-1.864 2.54 2.54 0 0 0-.772 1.864z"></path> <path data-v-6e1549f2="" d="M1544.593 19.026a1.266 1.266 0 0 0-.927-.39h-24.727q-.023-.145-.095-.526t-.113-.608a3.632 3.632 0 0 0-.154-.545 1.642 1.642 0 0 0-.27-.5 1.314 1.314 0 0 0-.41-.32 1.257 1.257 0 0 0-.588-.133h-5.27a1.267 1.267 0 0 0-.927.39 1.293 1.293 0 0 0 0 1.854 1.267 1.267 0 0 0 .927.39h4.2l3.644 16.943q-.04.084-.422.784t-.607 1.225a2.26 2.26 0 0 0-.226.812 1.335 1.335 0 0 0 1.32 1.32h21.08a1.318 1.318 0 0 0 0-2.637h-18.94a3.975 3.975 0 0 0 .492-1.317 2.224 2.224 0 0 0-.052-.453q-.05-.247-.123-.546t-.093-.443l21.5-2.512a1.278 1.278 0 0 0 .844-.443 1.3 1.3 0 0 0 .33-.875v-10.54a1.268 1.268 0 0 0-.395-.93z"></path> <path data-v-6e1549f2="" d="M1518.63 42.354a2.636 2.636 0 1 0 .772-1.864 2.537 2.537 0 0 0-.772 1.864z"></path></svg>
