<svg id="Layer_1" data-name="Layer 1" xmlns="http://www.w3.org/2000/svg" viewBox="0 0 503.146 503.146">
  <defs>
    <style>
      .cls-1 {
        fill: #333;
      }
    </style>
  </defs>
  <title>check-circle-stroke</title>
  <path class="cls-1" d="M256,4.426C117.076,4.426,4.427,117.076,4.427,255.999S117.077,507.572,256,507.572s251.573-112.63,251.573-251.573C507.573,117.075,394.924,4.426,256,4.426Zm0,483.026C128.401,487.452,24.548,383.637,24.548,256S128.363,24.548,256,24.548,487.452,128.363,487.452,256C487.452,383.599,383.637,487.452,256,487.452ZM381.844,166.19,220.269,322.82l-56.571-56.589a15.0819,15.0819,0,1,0-21.329,21.329l67.084,67.122a15.02,15.02,0,0,0,10.665,4.417,14.7914,14.7914,0,0,0,10.419-4.247L402.758,187.841a15.1242,15.1242,0,0,0-21.008-21.763l.057.076Z" transform="translate(-4.427 -4.426)"/>
</svg>
