<svg class="sw--svg" xmlns="http://www.w3.org/2000/svg" viewBox="0 0 28 30">
  <title>55-point Inspection</title>
  <path d="M6.6 19.2a1.61 1.61 0 0 0 0 1.22 1.59 1.59 0 0 0 .86.85l4.75 1.94a1.52 1.52 0 0 0 .59.12 1.57 1.57 0 0 0 1.46-1 1.61 1.61 0 0 0 0-1.22 1.56 1.56 0 0 0-.86-.85l-4.76-1.94a1.67 1.67 0 0 0-.59-.11 1.56 1.56 0 0 0-1.45.99zm6.49 2.67a.32.32 0 0 1-.41.17L7.93 20.1a.33.33 0 0 1-.17-.43.31.31 0 0 1 .29-.2.27.27 0 0 1 .12 0l4.75 1.94a.31.31 0 0 1 .18.41h.11z"></path>
  <path d="M28 21.84a1.51 1.51 0 0 0-.55-1l-3.78-3.11a1.53 1.53 0 0 0-.76-.33 5.35 5.35 0 0 0 .17-3.59 5.51 5.51 0 0 0-.78-1.55 4.26 4.26 0 0 0-.41-4.67.64.64 0 0 0-.45-.23.66.66 0 0 0-.48.17 3.68 3.68 0 0 1-2.26 1.28h-.07a1.42 1.42 0 0 1-.91-.42L20.19 2a.62.62 0 0 0-.2-.72L17.16.05a.55.55 0 0 0-.47 0 .6.6 0 0 0-.34.34L14 6.22a1.91 1.91 0 0 1-1.59-.08 3.46 3.46 0 0 1-1.15-2.63.63.63 0 0 0-.26-.45.66.66 0 0 0-.51-.1 4.49 4.49 0 0 0-2.76 2.09 5.15 5.15 0 0 0 0 4.32s.56 1.09-1.21 2.2l-.68.43h-.06a10.32 10.32 0 0 0-5.13 5.1c-2 4.87.56 9.43 6.57 11.88A12.61 12.61 0 0 0 12 30a8.65 8.65 0 0 0 6.1-2.37 8.15 8.15 0 0 0 2.45-7.58 4.72 4.72 0 0 0 .81-.53 1.56 1.56 0 0 0 .39.56l3.79 3.11a1.54 1.54 0 0 0 1 .35 1.51 1.51 0 0 0 1.11-.54 1.54 1.54 0 0 0 .35-1.16zm-5.52-3.14a.26.26 0 0 1 .38 0l3.79 3.11a.28.28 0 0 1 0 .39l.1.08-.1-.08a.28.28 0 0 1-.39 0l-3.75-3.1a.27.27 0 0 1-.1-.19.35.35 0 0 1 .07-.21zM14.39 8.54l2.88-7.08 1.53.63L16 9.21zM9 9.14a1 1 0 0 0-.12-.31 3.87 3.87 0 0 1-.07-3.18 2.89 2.89 0 0 1 1.27-1.2 3.94 3.94 0 0 0 1.61 2.76 2.68 2.68 0 0 0 1.69.4l-.22.55a2.1 2.1 0 0 0-.95 4l1.2.49a5.91 5.91 0 0 0-.5 1.13l-1.17-.48a2 2 0 0 0-1.59 0 2.09 2.09 0 0 0-1.12 1.14 2.12 2.12 0 0 0 1.15 2.73l2.82 1.2a2.29 2.29 0 0 0 .72.17A5.24 5.24 0 0 0 15.33 20a1.74 1.74 0 0 0-.32.28 1.59 1.59 0 0 0-.4 1.16 1.59 1.59 0 0 0 1.59 1.52 1.58 1.58 0 0 0 1.18-.54 1.56 1.56 0 0 0 .25-1.7 4.55 4.55 0 0 0 1.7-.16 6.91 6.91 0 0 1-2.13 6.19c-2.34 2.23-5.8 2.64-9.51 1.12a11 11 0 0 1-5.56-4.38 6.55 6.55 0 0 1-.31-5.86 9.13 9.13 0 0 1 4.57-4.47c.29-.16.59-.32.84-.48C9.37 11.3 9.2 9.74 9 9.14zm12.34 2.09a6.16 6.16 0 0 0-.89-.61A5.25 5.25 0 0 0 18 10h-.6a2.37 2.37 0 0 0-.28-.27l.08-.21a2.43 2.43 0 0 0 1.33.46 4 4 0 0 0 2.69-1.11 2.82 2.82 0 0 1 .15 2.36zm-4.89 10.31a.34.34 0 0 1-.48 0 .3.3 0 0 1-.11-.23.3.3 0 0 1 .08-.24.34.34 0 0 1 .26-.07.31.31 0 0 1 .22.09.34.34 0 0 1 .03.45zm-3.73-6.45a5.41 5.41 0 0 0 .22 1.85l-2.27-.93a.83.83 0 0 1-.44-1.01.84.84 0 0 1 .44-.45 1 1 0 0 1 .33-.06.62.62 0 0 1 .3.06zm1.51-3.45L12.71 11a.84.84 0 0 1-.46-1.09.81.81 0 0 1 .44-.45.78.78 0 0 1 .31-.05.85.85 0 0 1 .31.06l2.51 1a5.31 5.31 0 0 0-1.59 1.17zm1.9 7.36a4.09 4.09 0 0 1 .68-7.51 3.77 3.77 0 0 1 1.2-.19 4 4 0 0 1 3.86 2.87 4.09 4.09 0 0 1-2.66 5.11 4 4 0 0 1-3.08-.28z"></path>
  <path d="M21.25 16.07a.49.49 0 0 0 .5-.49 3.9 3.9 0 0 0-1.06-2.79A3.78 3.78 0 0 0 18 11.58a.54.54 0 0 0-.5.49.5.5 0 0 0 .49.52 2.82 2.82 0 0 1 2 .9 2.87 2.87 0 0 1 .79 2.06.51.51 0 0 0 .47.52z"></path>
</svg>
