<svg version="1.1" id="Layer_1" xmlns="http://www.w3.org/2000/svg" x="0" y="0" viewBox="0 0 1200 1200" xml:space="preserve"><style>.st0,.st1,.st2{opacity:.2}.st1,.st2{fill:none;stroke:#000;stroke-miterlimit:10}.st2{opacity:.15;stroke-width:3;stroke-dasharray:12}</style><g id="_x31_1"><path class="st0" d="m267.4 267.5-5.3 1.6c-.4.1-.8-.1-.9-.5l-8.7-28.4c-.1-.4.1-.8.5-.9l5.3-1.6c.4-.1.8.1.9.5l8.7 28.4c.1.4-.1.8-.5.9zm-5 .1 4-1.2-8.3-27-4 1.2 8.3 27z"/><path class="st0" d="m309.1 254.8-51.8 15.8c-.4.1-.8-.1-.9-.5-.1-.4.1-.8.5-.9l51.8-15.8c.4-.1.8.1.9.5.1.3-.1.7-.5.9zM265.7 262.6l-5 1.5c-.4.1-.8-.1-.9-.5-.1-.4.1-.8.5-.9l5-1.5c.4-.1.8.1.9.5.1.4-.2.8-.5.9zM264.2 257.9l-5 1.5c-.4.1-.8-.1-.9-.5-.1-.4.1-.8.5-.9l5-1.5c.4-.1.8.1.9.5.1.4-.1.8-.5.9zM262.8 253.2l-5 1.5c-.4.1-.8-.1-.9-.5-.1-.4.1-.8.5-.9l5-1.5c.4-.1.8.1.9.5.1.4-.1.8-.5.9zM261.4 248.6l-5 1.5c-.4.1-.8-.1-.9-.5-.1-.4.1-.8.5-.9l5-1.5c.4-.1.8.1.9.5.1.3-.1.8-.5.9zM259.9 243.9l-5 1.5c-.4.1-.8-.1-.9-.5-.1-.4.1-.8.5-.9l5-1.5c.4-.1.8.1.9.5.1.4-.1.8-.5.9z"/><path class="st0" d="m276.7 264.7-5.3 1.6c-.4.1-.8-.1-.9-.5l-5.8-18.9c-.1-.4.1-.8.5-.9l5.3-1.6c.4-.1.8.1.9.5l5.8 18.9c.1.4-.1.8-.5.9zm-5.1 0 4-1.2-5.4-17.5-4 1.2 5.4 17.5z"/><path class="st0" d="m274.9 259.8-5 1.5c-.4.1-.8-.1-.9-.5-.1-.4.1-.8.5-.9l5-1.5c.4-.1.8.1.9.5.1.3-.1.7-.5.9zM273.5 255.1l-5 1.5c-.4.1-.8-.1-.9-.5-.1-.4.1-.8.5-.9l5-1.5c.4-.1.8.1.9.5.1.4-.1.8-.5.9zM272.1 250.4l-5 1.5c-.4.1-.8-.1-.9-.5-.1-.4.1-.8.5-.9l5-1.5c.4-.1.8.1.9.5.1.4-.2.8-.5.9zM286 261.8l-5.3 1.6c-.4.1-.8-.1-.9-.5l-11.6-37.8c-.1-.4.1-.8.5-.9l5.3-1.6c.4-.1.8.1.9.5l11.6 37.8c.1.4-.2.8-.5.9zm-5.1.1 4-1.2-11.2-36.5-4 1.2 11.2 36.5z"/><path class="st0" d="m284.2 256.9-5 1.5c-.4.1-.8-.1-.9-.5-.1-.4.1-.8.5-.9l5-1.5c.4-.1.8.1.9.5.1.4-.1.8-.5.9zM282.8 252.2l-5 1.5c-.4.1-.8-.1-.9-.5-.1-.4.1-.8.5-.9l5-1.5c.4-.1.8.1.9.5.1.4-.2.8-.5.9zM281.3 247.6l-5 1.5c-.4.1-.8-.1-.9-.5-.1-.4.1-.8.5-.9l5-1.5c.4-.1.8.1.9.5.1.4-.1.8-.5.9zM279.9 242.9l-5 1.5c-.4.1-.8-.1-.9-.5-.1-.4.1-.8.5-.9l5-1.5c.4-.1.8.1.9.5.1.4-.1.8-.5.9zM278.5 238.2l-5 1.5c-.4.1-.8-.1-.9-.5-.1-.4.1-.8.5-.9l5-1.5c.4-.1.8.1.9.5.1.4-.1.8-.5.9zM277 233.6l-5 1.5c-.4.1-.8-.1-.9-.5-.1-.4.1-.8.5-.9l5-1.5c.4-.1.8.1.9.5.1.3-.1.7-.5.9zM275.6 228.9l-5 1.5c-.4.1-.8-.1-.9-.5-.1-.4.1-.8.5-.9l5-1.5c.4-.1.8.1.9.5.1.4-.1.8-.5.9zM295.2 259l-5.3 1.6c-.4.1-.8-.1-.9-.5l-7.2-23.7c-.1-.4.1-.8.5-.9l5.3-1.6c.4-.1.8.1.9.5l7.2 23.7c.1.4-.1.8-.5.9zm-5 .1 4-1.2-6.8-22.3-4 1.2 6.8 22.3z"/><path class="st0" d="m293.5 254.1-5 1.5c-.4.1-.8-.1-.9-.5-.1-.4.1-.8.5-.9l5-1.5c.4-.1.8.1.9.5 0 .4-.2.8-.5.9zM292 249.4l-5 1.5c-.4.1-.8-.1-.9-.5s.1-.8.5-.9l5-1.5c.4-.1.8.1.9.5.1.4-.1.8-.5.9zM290.6 244.7l-5 1.5c-.4.1-.8-.1-.9-.5-.1-.4.1-.8.5-.9l5-1.5c.4-.1.8.1.9.5s-.1.8-.5.9zM289.2 240.1l-5 1.5c-.4.1-.8-.1-.9-.5-.1-.4.1-.8.5-.9l5-1.5c.4-.1.8.1.9.5.1.4-.2.8-.5.9zM304.5 256.2l-5.3 1.6c-.4.1-.8-.1-.9-.5l-3-9.7c-.1-.4.1-.8.5-.9l5.3-1.6c.4-.1.8.1.9.5l3 9.7c.1.4-.1.8-.5.9zm-5.1 0 4-1.2-2.5-8.3-4 1.2 2.5 8.3z"/><path class="st0" d="m302.7 251.3-5 1.5c-.4.1-.8-.1-.9-.5s.1-.8.5-.9l5-1.5c.4-.1.8.1.9.5.1.3-.1.7-.5.9z"/></g><g id="_x32__2_"><path class="st0" d="m594.9 27.7-30.1 9.2c-.4.1-.8-.1-.9-.5-.1-.4.1-.8.5-.9l30.1-9.2c.4-.1.8.1.9.5s-.2.8-.5.9zM557.6 39.1l-6.5 2c-.4.1-.8-.1-.9-.5s.1-.8.5-.9l6.5-2c.4-.1.8.1.9.5s-.1.8-.5.9z"/><path class="st0" d="M562.3 41.6c-2.3.7-4.8-.6-5.5-2.9-.7-2.3.6-4.8 2.9-5.5s4.8.6 5.5 2.9c.8 2.3-.6 4.8-2.9 5.5zm-2.2-7.1a3.037 3.037 0 0 0 1.8 5.8 3.037 3.037 0 0 0-1.8-5.8zM585.4 45.7l-30.1 9.2c-.4.1-.8-.1-.9-.5-.1-.4.1-.8.5-.9l30.1-9.2c.4-.1.8.1.9.5.1.4-.1.8-.5.9zM599.1 41.6l-6.5 2c-.4.1-.8-.1-.9-.5s.1-.8.5-.9l6.5-2c.4-.1.8.1.9.5.1.3-.1.7-.5.9z"/><path class="st0" d="M590.1 48.2c-2.3.7-4.8-.6-5.5-2.9-.7-2.3.6-4.8 2.9-5.5 2.3-.7 4.8.6 5.5 2.9.7 2.3-.6 4.8-2.9 5.5zm-2.2-7.1a3.037 3.037 0 0 0 1.8 5.8 3.037 3.037 0 0 0-1.8-5.8zM603.3 55.4 582 61.9c-.4.1-.8-.1-.9-.5-.1-.4.1-.8.5-.9l21.3-6.5c.4-.1.8.1.9.5.1.4-.1.8-.5.9zM574.9 64.1l-15.3 4.7c-.4.1-.8-.1-.9-.5-.1-.4.1-.8.5-.9l15.3-4.7c.4-.1.8.1.9.5.1.4-.1.8-.5.9z"/><path class="st0" d="M579.5 66.6c-2.3.7-4.8-.6-5.5-2.9-.7-2.3.6-4.8 2.9-5.5 2.3-.7 4.8.6 5.5 2.9.8 2.3-.5 4.7-2.9 5.5zm-2.1-7.2a3.037 3.037 0 0 0 1.8 5.8c1.6-.5 2.5-2.2 2-3.8-.6-1.5-2.2-2.4-3.8-2z"/></g><g id="_x31__10_"><path class="st0" d="M292.8 680.5c-.4.1-.8-.1-.9-.5l-7.5-24.6c-.1-.3 0-.7.3-.8.3-.2.7-.1.9.2 1.6 1.8 3.6 3.3 5.4 4.5 2.4 1.7 4.5 3.2 4.8 5.2.2 1-.1 2-.9 3-.2.3-.7.4-1 .1-.3-.2-.4-.7-.1-1 .5-.7.8-1.4.7-2-.2-1.4-2.1-2.7-4.2-4.2-1.1-.8-2.4-1.7-3.6-2.7l6.7 21.9c0 .4-.2.8-.6.9z"/><path class="st0" d="M289 686.3c-2.1.6-4.1.1-5.1-1.4-.7-1-.8-2.2-.3-3.5.4-1.2 1.3-2.3 2.5-3.1.6-.4 1.2-.7 1.8-.9 2.1-.6 4.1-.1 5.1 1.4 1.3 1.9.3 4.9-2.1 6.6-.7.4-1.3.7-1.9.9zm-.7-7.4c-.5.2-1 .4-1.4.7-.9.6-1.6 1.5-1.9 2.4-.3.8-.2 1.6.2 2.2.6.9 2 1.2 3.5.8.5-.2 1-.4 1.4-.7 1.8-1.2 2.6-3.3 1.7-4.6-.7-1-2-1.3-3.5-.8zM311.9 691.3c-.4.1-.8-.1-.9-.5l-7.5-24.6c-.1-.3 0-.7.3-.8.3-.2.7-.1.9.2 1.6 1.8 3.6 3.3 5.4 4.5 2.4 1.7 4.5 3.2 4.8 5.2.2 1-.1 2-.9 3-.2.3-.7.4-1 .1-.3-.2-.4-.7-.1-1 .5-.7.8-1.4.7-2-.2-1.4-2.1-2.7-4.2-4.2-1.1-.8-2.4-1.7-3.6-2.7l6.7 21.9c0 .4-.2.8-.6.9z"/><path class="st0" d="M308 697.1c-2.1.6-4.1.1-5.1-1.4-.7-1-.8-2.2-.3-3.5.4-1.2 1.3-2.3 2.5-3.1.6-.4 1.2-.7 1.8-.9 2.1-.6 4.1-.1 5.1 1.4 1.3 1.9.3 4.9-2.1 6.6-.6.4-1.2.7-1.9.9zm-.7-7.4c-.5.2-1 .4-1.4.7-.9.6-1.6 1.5-1.9 2.4-.3.8-.2 1.6.2 2.2.6.9 2 1.2 3.5.8.5-.2 1-.4 1.4-.7 1.8-1.2 2.6-3.3 1.7-4.6-.6-1-2-1.3-3.5-.8z"/></g><path class="st0" d="M268.1 1017.6c-5.9 1.8-12.2-1.5-14-7.4-1.8-6-2.7-9.9-3.6-13.6-.8-3.4-1.5-6.5-2.9-11.1-1.2-4.1-3-4.4-5.4-3.7-.5.2-1.1-.1-1.3-.7-.2-.5.1-1.1.7-1.3 3.9-1.2 6.5.4 7.9 5 1.4 4.6 2.1 7.8 2.9 11.2.8 3.7 1.7 7.5 3.5 13.5 1.5 4.8 6.6 7.6 11.5 6.1 4.8-1.5 7.6-6.6 6.1-11.5-.2-.9-2.2-8.3-2-10.4.2-1.9.5-3.8 2.6-5.3.4-.3 1.1-.2 1.4.2.3.5.2 1.1-.2 1.4-1.4 1-1.6 2.2-1.8 3.9-.1 1.3 1.1 6.6 2 9.7 1.9 5.9-1.5 12.2-7.4 14z"/><path class="st0" d="M262.5 1009.7c-1.6.5-3.3-.4-3.8-2l-7.2-23.4c-1.8-5.8-5.3-8-10.5-6.4-1.6.5-2.1 1.5-2.8 2.7-.7 1.4-1.5 2.9-3.9 3.6-.5.2-1.1-.1-1.3-.7-.2-.5.1-1.1.7-1.3 1.5-.5 2-1.4 2.7-2.6.7-1.3 1.6-2.9 4-3.7 6.2-1.9 10.9.9 13 7.7l7.2 23.4c.2.5.7.8 1.3.7s.8-.7.7-1.3l-4.5-14.6c-.9-2.8-2.1-4.2-2.1-4.2-.4-.4-.4-1.1 0-1.4.4-.4 1-.4 1.4 0 .1.1 1.6 1.7 2.6 5l4.5 14.6c.5 1.7-.4 3.4-2 3.9z"/><path class="st0" d="M273.8 990.8c-1.6.5-3.6.6-4.8.6v-2c3.7 0 5.2-.8 5.3-1.1-.1-.5-2.7-2.2-8.2-2.9-5.5-.7-8.4.3-8.7.8.1.5 2.7 2.2 8.2 2.9l-.2 2c-3.9-.5-10.4-2.1-10-5.2.2-1.3 1.5-2.2 3.9-2.6 2-.3 4.5-.3 7.1 0 3.9.5 10.4 2.1 10 5.2-.2 1.2-1.3 1.9-2.6 2.3z"/><path transform="rotate(-17.001 252.77 984.891)" class="st0" d="M250.7 983.9h4.1v2h-4.1z"/><path transform="rotate(-17.001 253.963 988.79)" class="st0" d="M251.9 987.8h4.1v2h-4.1z"/><path transform="rotate(-17.001 255.155 992.69)" class="st0" d="M253.1 991.7h4.1v2h-4.1z"/><path transform="rotate(-17.001 256.347 996.59)" class="st0" d="M254.3 995.6h4.1v2h-4.1z"/><path class="st0" d="M720.3 912.2c-12.2 3.7-25.1-3.2-28.9-15.4s3.2-25.1 15.4-28.9c4.7-1.4 9.7-1.4 14.4.3.5.2.8.8.6 1.3s-.8.8-1.3.6c-4.3-1.5-8.8-1.6-13.1-.3-11.1 3.4-17.4 15.2-14 26.4s15.2 17.4 26.4 14c11.1-3.4 17.4-15.2 14-26.4-1.1-3.5-3.1-6.8-5.8-9.3-.4-.4-.4-1-.1-1.4.4-.4 1-.4 1.4-.1 3 2.8 5.2 6.3 6.3 10.2 3.8 12.3-3.1 25.3-15.3 29z"/><path class="st0" d="M715.9 897.8c-4.2 1.3-8.7-1.1-10-5.3-1.3-4.2 1.1-8.7 5.3-10 4.2-1.3 8.7 1.1 10 5.3 1.3 4.2-1.1 8.7-5.3 10zm-4.1-13.5c-3.2 1-5 4.4-4 7.5s4.4 5 7.5 4 5-4.4 4-7.5-4.4-5-7.5-4z"/><path transform="rotate(-17.001 713.47 890.005)" class="st0" d="M712.5 889.1h2v2h-2z"/><path class="st0" d="M725.5 905.3c-.2.1-.5.1-.8-.1l-5-2.7c-.5-.3-.7-.9-.4-1.4l5.3-10c.3-.5.9-.7 1.4-.4l5 2.7c.5.3.7.9.4 1.4l-5.3 10c-.1.3-.3.4-.6.5zm-3.9-4 3.2 1.7 4.4-8.3-3.2-1.7-4.4 8.3z"/><path class="st0" d="m729 893.5-1.8-1 1.8-3.4-7.8-25.5 1.9-.6 8.1 26.3zM695.6 889.8c-.1 0-.2.1-.4 0-.6 0-1-.5-.9-1.1.3-4.6 2.4-9 5.7-12.3.4-.4 1-.4 1.4 0 .4.4.4 1 0 1.4-3 2.9-4.8 6.8-5.1 11 0 .6-.3.9-.7 1zM699.6 890.1c-.1 0-.2.1-.4 0-.6 0-1-.5-.9-1.1.3-3.7 1.9-7.1 4.5-9.7.4-.4 1-.4 1.4 0 .4.4.4 1 0 1.4-2.3 2.2-3.7 5.2-3.9 8.4 0 .6-.3.9-.7 1z"/><g class="st0"><path d="M109.2 226.8c-3.8 1.2-7.8 1.4-11.7.6-1-.2-2.1.2-2.5 1.1l-.6 1.1c-1.1 2.2-4 3-6.2 1.9l-1.1-.6c-1.1-.6-1.9-1.5-2.2-2.7-.4-1.2-.2-2.4.3-3.5l.6-1.1c.5-.9.3-2-.5-2.8-2.8-2.8-4.9-6.2-6.1-10-1.2-3.8-1.4-7.8-.6-11.7.2-1-.2-2.1-1.1-2.5l-1.1-.6c-1.1-.6-1.9-1.5-2.2-2.7-.4-1.2-.2-2.4.3-3.5l.6-1.1c1.1-2.2 4-3 6.2-1.9l1.1.6c.9.5 2 .3 2.8-.5 5.5-5.6 14-8.2 21.7-6.6 1 .2 2.1-.2 2.5-1.1l.6-1.1c1.1-2.2 4-3 6.2-1.9l1.1.6c1.1.6 1.9 1.5 2.2 2.7.4 1.2.2 2.4-.3 3.5l-.6 1.1c-.5.9-.3 2 .5 2.8 2.8 2.8 4.9 6.2 6.1 10 1.2 3.8 1.4 7.8.6 11.7-.2 1 .2 2.1 1.1 2.5l1.1.6c1.1.6 1.9 1.5 2.2 2.7.4 1.2.2 2.4-.3 3.5l-.6 1.1c-1.1 2.2-4 3-6.2 1.9l-1.1-.6c-.9-.5-2-.3-2.8.5-2.7 2.7-6.2 4.8-10 6zm-13.6-1.6c.7-.2 1.5-.3 2.3-.1 7 1.4 14.6-.9 19.7-6 1.5-1.5 3.7-1.8 5.5-.9l1.1.6c1.1.6 2.5.1 3.1-.9l.6-1.1c.3-.5.3-1.2.2-1.7-.2-.6-.6-1.1-1.1-1.3l-1.1-.6c-1.8-1-2.7-3-2.3-5 .7-3.5.5-7.2-.5-10.6-1-3.4-2.9-6.6-5.5-9.1-1.5-1.5-1.8-3.7-.9-5.5l.6-1.1c.3-.5.3-1.2.2-1.7-.2-.6-.6-1.1-1.1-1.3l-1.1-.6c-1.1-.6-2.5-.1-3.1.9l-.6 1.1c-1 1.8-3 2.7-5 2.3-7-1.4-14.6.9-19.7 6-1.5 1.5-3.7 1.8-5.5.9l-1.1-.6c-1.1-.6-2.5-.1-3.1.9l-.6 1.1c-.3.5-.3 1.2-.2 1.7.2.6.6 1.1 1.1 1.3l1.1.6c1.8 1 2.7 3 2.3 5-.7 3.5-.5 7.2.5 10.6s2.9 6.6 5.5 9.1c1.5 1.5 1.8 3.7.9 5.5l-.6 1.1c-.3.5-.3 1.2-.2 1.7.2.6.6 1.1 1.1 1.3l1.1.6c1.1.6 2.5.1 3.1-.9l.6-1.1c.6-1.1 1.6-1.9 2.7-2.2z"/><path d="M107.5 221.3c-9.6 2.9-19.9-2.5-22.8-12.1-2.9-9.6 2.5-19.9 12.1-22.8s19.9 2.5 22.8 12.1c3 9.6-2.4 19.9-12.1 22.8zm-10-32.8c-8.4 2.6-13.2 11.5-10.6 20 2.6 8.4 11.5 13.2 20 10.6 8.4-2.6 13.2-11.5 10.6-20-2.6-8.4-11.5-13.1-20-10.6z"/><path d="M104.9 212.6c-4.8 1.5-9.9-1.2-11.4-6.1-1.5-4.8 1.2-9.9 6.1-11.4s9.9 1.2 11.4 6.1c1.4 4.8-1.3 9.9-6.1 11.4zm-4.7-15.3c-3.6 1.1-5.7 4.9-4.5 8.6 1.1 3.6 4.9 5.7 8.6 4.5 3.6-1.1 5.7-4.9 4.5-8.6s-5-5.6-8.6-4.5z"/><path d="M98.2 206.3c-.6.2-1.2-.2-1.4-.8-.9-3 .8-6.2 3.8-7.1.6-.2 1.2.2 1.4.8.2.6-.2 1.2-.8 1.4-1.8.6-2.8 2.5-2.3 4.3.2.5-.1 1.2-.7 1.4z"/></g><path class="st0" d="M387.4 1116.1c-2.6.8-5.5.5-8.4-1.1-2.5-1.3-4.4-3.4-5.4-5.7-1-2.5-.8-5.2.5-7.7l1-1.9c2.6-4.9 8.4-6.3 13.8-3.4s7.4 8.5 4.9 13.3l-1 1.9c-1.2 2.4-3.1 3.9-5.4 4.6zm-6.3-18.7c-1.7.5-3.2 1.7-4.1 3.5l-1 1.9c-1 1.9-1.2 4-.4 5.9.7 1.9 2.3 3.5 4.4 4.6 4.4 2.3 8.9 1.3 10.9-2.6l1-1.9c2-3.8.4-8.2-4-10.5-2.3-1.3-4.7-1.5-6.8-.9z"/><path class="st0" d="M391.1 1112.4c-.8.2-1.7.3-2.7.2-2.1-.1-4.6-.9-6.9-2.2-5.3-2.8-8.3-7-6.8-9.6l1.9 1c-.6 1.1 1.4 4.3 6 6.8 2.1 1.1 4.3 1.8 6.1 1.9 1.4.1 2.5-.2 2.9-.8l1.9 1c-.6.8-1.4 1.4-2.4 1.7zM370.3 1138.4c-.7.2-1.4.2-2-.2l-3.4-1.8c-1.4-.7-1.8-2.5-1.1-4l9-17.5-.4-1.3 1.3-4.6 2 .6-1.1 4 .5 1.5-9.3 18.3c-.3.5-.1 1 .2 1.2l3.4 1.8c.3.1.8-.1 1.1-.6l10.7-17.7 1.5-.5 2.6-3 1.6 1.4-3 3.4-1.3.4-10.3 17c-.6.8-1.2 1.3-2 1.6z"/><path class="st0" d="M374.7 1149c-1.6.5-3.4.4-5.1-.5l-2-1.1c-3.2-1.7-4.5-5.8-2.7-9l1.2-2.3 1.9 1-1.2 2.3c-1.2 2.2-.3 5 1.9 6.1l2 1.1c2.2 1.2 5 .3 6.1-1.9l8.4-15.8c1.7-3.2 5.8-4.5 9-2.7h.1c1.5.8 2.7 2.2 3.2 3.9.5 1.7.3 3.5-.5 5.1l-2.3 4.3-1.9-1 2.3-4.3c.6-1.1.7-2.3.3-3.5-.4-1.2-1.1-2.1-2.2-2.7h-.1c-2.2-1.1-4.9-.3-6.1 1.9l-8.4 15.8c-.9 1.7-2.3 2.8-3.9 3.3z"/><path class="st1" d="m160.5 570.3-22.6 6.9-5.4 23.1 17.4 16.1 22.6-6.9 5.3-23.1z"/><path class="st0" d="m164.6 561.7-16.5 5-3.9 16.9 12.7 11.8 16.5-5 3.9-16.9zM583 489.6l-4.4 18.8 18.5-5.7zM569.6 1028.9l-4.3 18.7 18.4-5.6zM74.9 292.3 70.5 311l18.4-5.6z"/><path class="st2" d="m234.4 917.3-32.8 141.8 139.2-42.5z"/><circle class="st2" cx="277.3" cy="250.6" r="66"/><g id="_x31_1_1_"><path class="st0" d="m1048.4 586.2-5.3 1.6c-.4.1-.8-.1-.9-.5l-8.7-28.4c-.1-.4.1-.8.5-.9l5.3-1.6c.4-.1.8.1.9.5l8.7 28.4c.1.3-.2.7-.5.9zm-5.1 0 4-1.2-8.3-27-4 1.2 8.3 27z"/><path class="st0" d="m1090 573.4-51.8 15.8c-.4.1-.8-.1-.9-.5-.1-.4.1-.8.5-.9l51.8-15.8c.4-.1.8.1.9.5.1.4-.1.8-.5.9zM1046.6 581.2l-5 1.5c-.4.1-.8-.1-.9-.5-.1-.4.1-.8.5-.9l5-1.5c.4-.1.8.1.9.5.1.4-.1.8-.5.9zM1045.2 576.6l-5 1.5c-.4.1-.8-.1-.9-.5-.1-.4.1-.8.5-.9l5-1.5c.4-.1.8.1.9.5s-.2.8-.5.9zM1043.7 571.9l-5 1.5c-.4.1-.8-.1-.9-.5s.1-.8.5-.9l5-1.5c.4-.1.8.1.9.5s-.1.8-.5.9zM1042.3 567.2l-5 1.5c-.4.1-.8-.1-.9-.5-.1-.4.1-.8.5-.9l5-1.5c.4-.1.8.1.9.5.1.4-.1.8-.5.9zM1040.9 562.5l-5 1.5c-.4.1-.8-.1-.9-.5-.1-.4.1-.8.5-.9l5-1.5c.4-.1.8.1.9.5.1.4-.1.8-.5.9z"/><path class="st0" d="m1057.6 583.3-5.3 1.6c-.4.1-.8-.1-.9-.5l-5.8-18.9c-.1-.4.1-.8.5-.9l5.3-1.6c.4-.1.8.1.9.5l5.8 18.9c.1.4-.1.8-.5.9zm-5 .1 4-1.2-5.4-17.5-4 1.2 5.4 17.5z"/><path class="st0" d="m1055.9 578.4-5 1.5c-.4.1-.8-.1-.9-.5-.1-.4.1-.8.5-.9l5-1.5c.4-.1.8.1.9.5 0 .4-.2.8-.5.9zM1054.4 573.7l-5 1.5c-.4.1-.8-.1-.9-.5-.1-.4.1-.8.5-.9l5-1.5c.4-.1.8.1.9.5.1.4-.1.8-.5.9zM1053 569.1l-5 1.5c-.4.1-.8-.1-.9-.5-.1-.4.1-.8.5-.9l5-1.5c.4-.1.8.1.9.5.1.3-.1.7-.5.9zM1066.9 580.5l-5.3 1.6c-.4.1-.8-.1-.9-.5l-11.6-37.8c-.1-.4.1-.8.5-.9l5.3-1.6c.4-.1.8.1.9.5l11.6 37.8c.1.4-.1.8-.5.9zm-5.1 0 4-1.2-11.2-36.5-4 1.2 11.2 36.5z"/><path class="st0" d="m1065.1 575.6-5 1.5c-.4.1-.8-.1-.9-.5-.1-.4.1-.8.5-.9l5-1.5c.4-.1.8.1.9.5.1.4-.1.8-.5.9zM1063.7 570.9l-5 1.5c-.4.1-.8-.1-.9-.5-.1-.4.1-.8.5-.9l5-1.5c.4-.1.8.1.9.5.1.4-.1.8-.5.9zM1062.3 566.2l-5 1.5c-.4.1-.8-.1-.9-.5-.1-.4.1-.8.5-.9l5-1.5c.4-.1.8.1.9.5 0 .4-.2.8-.5.9zM1060.8 561.6l-5 1.5c-.4.1-.8-.1-.9-.5-.1-.4.1-.8.5-.9l5-1.5c.4-.1.8.1.9.5.1.3-.1.7-.5.9zM1059.4 556.9l-5 1.5c-.4.1-.8-.1-.9-.5-.1-.4.1-.8.5-.9l5-1.5c.4-.1.8.1.9.5.1.4-.1.8-.5.9zM1058 552.2l-5 1.5c-.4.1-.8-.1-.9-.5-.1-.4.1-.8.5-.9l5-1.5c.4-.1.8.1.9.5.1.4-.2.8-.5.9zM1056.5 547.5l-5 1.5c-.4.1-.8-.1-.9-.5-.1-.4.1-.8.5-.9l5-1.5c.4-.1.8.1.9.5.1.4-.1.8-.5.9zM1076.2 577.7l-5.3 1.6c-.4.1-.8-.1-.9-.5l-7.2-23.7c-.1-.4.1-.8.5-.9l5.3-1.6c.4-.1.8.1.9.5l7.2 23.7c.1.3-.2.7-.5.9zm-5.1 0 4-1.2-6.8-22.3-4 1.2 6.8 22.3z"/><path class="st0" d="m1074.4 572.7-5 1.5c-.4.1-.8-.1-.9-.5-.1-.4.1-.8.5-.9l5-1.5c.4-.1.8.1.9.5.1.4-.1.8-.5.9zM1073 568.1l-5 1.5c-.4.1-.8-.1-.9-.5-.1-.4.1-.8.5-.9l5-1.5c.4-.1.8.1.9.5 0 .4-.2.8-.5.9zM1071.5 563.4l-5 1.5c-.4.1-.8-.1-.9-.5-.1-.4.1-.8.5-.9l5-1.5c.4-.1.8.1.9.5.1.4-.1.8-.5.9zM1070.1 558.7l-5 1.5c-.4.1-.8-.1-.9-.5-.1-.4.1-.8.5-.9l5-1.5c.4-.1.8.1.9.5.1.4-.1.8-.5.9zM1085.4 574.8l-5.3 1.6c-.4.1-.8-.1-.9-.5l-3-9.7c-.1-.4.1-.8.5-.9l5.3-1.6c.4-.1.8.1.9.5l3 9.7c.1.4-.1.8-.5.9zm-5.1.1 4-1.2-2.5-8.3-4 1.2 2.5 8.3z"/><path class="st0" d="m1083.6 569.9-5 1.5c-.4.1-.8-.1-.9-.5s.1-.8.5-.9l5-1.5c.4-.1.8.1.9.5s-.1.8-.5.9z"/></g><g id="_x32__1_"><path class="st0" d="m878.8 725.4-30.1 9.2c-.4.1-.8-.1-.9-.5-.1-.4.1-.8.5-.9l30.1-9.2c.4-.1.8.1.9.5.1.4-.1.8-.5.9zM841.6 736.8l-6.5 2c-.4.1-.8-.1-.9-.5-.1-.4.1-.8.5-.9l6.5-2c.4-.1.8.1.9.5.1.3-.1.7-.5.9z"/><path class="st0" d="M846.2 739.2c-2.3.7-4.8-.6-5.5-2.9-.7-2.3.6-4.8 2.9-5.5s4.8.6 5.5 2.9c.8 2.3-.5 4.8-2.9 5.5zm-2.2-7.1a3.037 3.037 0 0 0 1.8 5.8 3.037 3.037 0 0 0-1.8-5.8zM869.3 743.4l-30.1 9.2c-.4.1-.8-.1-.9-.5-.1-.4.1-.8.5-.9l30.1-9.2c.4-.1.8.1.9.5.1.4-.1.8-.5.9zM883 739.2l-6.5 2c-.4.1-.8-.1-.9-.5-.1-.4.1-.8.5-.9l6.5-2c.4-.1.8.1.9.5.1.4-.1.8-.5.9z"/><path class="st0" d="M874 745.9c-2.3.7-4.8-.6-5.5-2.9-.7-2.3.6-4.8 2.9-5.5 2.3-.7 4.8.6 5.5 2.9.8 2.3-.6 4.8-2.9 5.5zm-2.2-7.2a3.037 3.037 0 0 0 1.8 5.8c1.6-.5 2.5-2.2 2-3.8s-2.2-2.4-3.8-2zM887.2 753.1l-21.3 6.5c-.4.1-.8-.1-.9-.5-.1-.4.1-.8.5-.9l21.3-6.5c.4-.1.8.1.9.5.1.3-.1.7-.5.9zM858.8 761.7l-15.3 4.7c-.4.1-.8-.1-.9-.5-.1-.4.1-.8.5-.9l15.3-4.7c.4-.1.8.1.9.5.1.4-.1.8-.5.9z"/><path class="st0" d="M863.5 764.2c-2.3.7-4.8-.6-5.5-2.9-.7-2.3.6-4.8 2.9-5.5 2.3-.7 4.8.6 5.5 2.9.7 2.3-.6 4.8-2.9 5.5zm-2.2-7.1a3.037 3.037 0 0 0 1.8 5.8 3.037 3.037 0 0 0-1.8-5.8z"/></g><g id="_x31__1_"><path class="st0" d="M1068.8 998.2c-.4.1-.8-.1-.9-.5l-7.5-24.6c-.1-.3 0-.7.3-.8.3-.2.7-.1.9.2 1.6 1.8 3.6 3.3 5.4 4.5 2.4 1.7 4.5 3.2 4.8 5.2.2 1-.1 2-.9 3-.2.3-.7.4-1 .1-.3-.2-.4-.7-.1-1 .5-.7.8-1.4.7-2-.2-1.4-2.1-2.7-4.2-4.2-1.1-.8-2.4-1.7-3.6-2.7l6.7 21.9c0 .4-.2.8-.6.9z"/><path class="st0" d="M1064.9 1004c-2.1.6-4.1.1-5.1-1.4-.7-1-.8-2.2-.3-3.5.4-1.2 1.3-2.3 2.5-3.1.6-.4 1.2-.7 1.8-.9 2.1-.6 4.1-.1 5.1 1.4 1.3 1.9.3 4.9-2.1 6.6-.6.4-1.2.7-1.9.9zm-.7-7.5c-.5.2-1 .4-1.4.7-.9.6-1.6 1.5-1.9 2.4-.3.8-.2 1.6.2 2.2.6.9 2 1.2 3.5.8.5-.2 1-.4 1.4-.7 1.8-1.2 2.6-3.3 1.7-4.6-.7-.9-2-1.2-3.5-.8zM1087.8 1009c-.4.1-.8-.1-.9-.5l-7.5-24.6c-.1-.3 0-.7.3-.8.3-.2.7-.1.9.2 1.6 1.8 3.6 3.3 5.4 4.5 2.4 1.7 4.5 3.2 4.8 5.2.2 1-.1 2-.9 3-.2.3-.7.4-1 .1-.3-.2-.4-.7-.1-1 .5-.7.8-1.4.7-2-.2-1.4-2.1-2.7-4.2-4.2-1.1-.8-2.4-1.7-3.6-2.7l6.7 21.9c0 .4-.2.8-.6.9z"/><path class="st0" d="M1084 1014.7c-2.1.6-4.1.1-5.1-1.4-.7-1-.8-2.2-.3-3.5.4-1.2 1.3-2.3 2.5-3.1.6-.4 1.2-.7 1.8-.9 2.1-.6 4.1-.1 5.1 1.4 1.3 1.9.3 4.9-2.1 6.6-.7.5-1.3.8-1.9.9zm-.7-7.4c-.5.2-1 .4-1.4.7-.9.6-1.6 1.5-1.9 2.4-.3.8-.2 1.6.2 2.2.6.9 2 1.2 3.5.8.5-.2 1-.4 1.4-.7 1.8-1.2 2.6-3.3 1.7-4.6-.7-.9-2.1-1.2-3.5-.8z"/></g><g><path class="st0" d="M872.1 533.4c-3.8 1.2-7.8 1.4-11.7.6-1-.2-2.1.2-2.5 1.1l-.6 1.1c-1.1 2.2-4 3-6.2 1.9l-1.1-.6c-1.1-.6-1.9-1.5-2.2-2.7-.4-1.2-.2-2.4.3-3.5l.6-1.1c.5-.9.3-2-.5-2.8-2.8-2.8-4.9-6.2-6.1-10-1.2-3.8-1.4-7.8-.6-11.7.2-1-.2-2.1-1.1-2.5l-1.1-.6c-1.1-.6-1.9-1.5-2.2-2.7-.4-1.2-.2-2.4.3-3.5l.6-1.1c1.1-2.2 4-3 6.2-1.9l1.1.6c.9.5 2 .3 2.8-.5 5.5-5.6 14-8.2 21.7-6.6 1 .2 2.1-.2 2.5-1.1l.6-1.1c1.1-2.2 4-3 6.2-1.9l1.1.6c1.1.6 1.9 1.5 2.2 2.7.4 1.2.2 2.4-.3 3.5l-.6 1.1c-.5.9-.3 2 .5 2.8 2.8 2.8 4.9 6.2 6.1 10 1.2 3.8 1.4 7.8.6 11.7-.2 1 .2 2.1 1.1 2.5l1.1.6c1.1.6 1.9 1.5 2.2 2.7.4 1.2.2 2.4-.3 3.5l-.6 1.1c-1.1 2.2-4 3-6.2 1.9l-1.1-.6c-.9-.5-2-.3-2.8.5-2.7 2.8-6.2 4.9-10 6zm-13.5-1.5c.7-.2 1.5-.3 2.3-.1 7 1.4 14.6-.9 19.7-6 1.5-1.5 3.7-1.8 5.5-.9l1.1.6c1.1.6 2.5.1 3.1-.9l.6-1.1c.3-.5.3-1.2.2-1.7-.2-.6-.6-1.1-1.1-1.3l-1.1-.6c-1.8-1-2.7-3-2.3-5 .7-3.5.5-7.2-.5-10.6-1-3.4-2.9-6.6-5.5-9.1-1.5-1.5-1.8-3.7-.9-5.5l.6-1.1c.3-.5.3-1.2.2-1.7-.2-.6-.6-1.1-1.1-1.3l-1.1-.6c-1.1-.6-2.5-.1-3.1.9l-.6 1.1c-1 1.8-3 2.7-5 2.3-7-1.4-14.6.9-19.7 6-1.5 1.5-3.7 1.8-5.5.9l-1.1-.6c-1.1-.6-2.5-.1-3.1.9l-.6 1.1c-.3.5-.3 1.2-.2 1.7.2.6.6 1.1 1.1 1.3l1.1.6c1.8 1 2.7 3 2.3 5-.7 3.5-.5 7.2.5 10.6 1 3.4 2.9 6.6 5.5 9.1 1.5 1.5 1.8 3.7.9 5.5l-.6 1.1c-.3.5-.3 1.2-.2 1.7.2.6.6 1.1 1.1 1.3l1.1.6c1.1.6 2.5.1 3.1-.9l.6-1.1c.6-1.1 1.5-1.9 2.7-2.2z"/><path class="st0" d="M870.5 528c-9.6 2.9-19.9-2.5-22.8-12.1-2.9-9.6 2.5-19.9 12.1-22.8s19.9 2.5 22.8 12.1c3 9.6-2.5 19.8-12.1 22.8zm-10-32.8c-8.4 2.6-13.2 11.5-10.6 20 2.6 8.4 11.5 13.2 20 10.6 8.4-2.6 13.2-11.5 10.6-20-2.7-8.4-11.6-13.2-20-10.6z"/><path class="st0" d="M867.8 519.2c-4.8 1.5-9.9-1.2-11.4-6.1-1.5-4.8 1.2-9.9 6.1-11.4 4.8-1.5 9.9 1.2 11.4 6.1 1.4 4.8-1.3 9.9-6.1 11.4zm-4.7-15.3c-3.6 1.1-5.7 4.9-4.5 8.6 1.1 3.6 4.9 5.7 8.6 4.5 3.6-1.1 5.7-4.9 4.5-8.6s-5-5.6-8.6-4.5z"/><path class="st0" d="M861.1 512.9c-.6.2-1.2-.2-1.4-.8-.9-3 .8-6.2 3.8-7.1.6-.2 1.2.2 1.4.8.2.6-.2 1.2-.8 1.4-1.8.6-2.8 2.5-2.3 4.3.2.6-.1 1.2-.7 1.4z"/></g><path class="st1" d="m906.7 874.5-22.7 6.9-5.3 23 17.3 16.2 22.7-6.9 5.3-23.1z"/><path class="st0" d="m910.8 865.9-16.5 5-3.9 16.9 12.6 11.8 16.6-5 3.9-16.9zM793.9 178.3l-4.3 18.7 18.4-5.6zM855.8 610.9l-4.4 18.8 18.5-5.6z"/><circle class="st2" cx="864.7" cy="510.3" r="66"/><g id="_x31__3_"><path class="st0" d="M1085.4 125.8c-.6.2-1.2-.2-1.4-.7l-11.6-38c-.2-.5.1-1 .5-1.3.5-.3 1-.1 1.4.2 2.4 2.8 5.5 5 8.3 7 3.7 2.7 7 4.9 7.4 8 .2 1.5-.2 3.1-1.4 4.7-.4.5-1.1.6-1.5.2-.5-.4-.6-1.1-.2-1.5.8-1.1 1.2-2.1 1-3-.3-2.1-3.2-4.2-6.5-6.5-1.8-1.3-3.7-2.6-5.5-4.2l10.3 33.8c.1.5-.2 1.2-.8 1.3z"/><path class="st0" d="M1079.5 134.8c-3.2 1-6.3.2-7.8-2.1-1-1.5-1.2-3.4-.5-5.4.6-1.8 2-3.5 3.8-4.7.9-.6 1.8-1 2.8-1.3 3.2-1 6.3-.2 7.8 2.1 2 3 .5 7.5-3.3 10.1-.9.5-1.9 1-2.8 1.3zm-1.1-11.5c-.8.2-1.5.6-2.2 1.1-1.4 1-2.5 2.2-3 3.6-.4 1.3-.4 2.5.3 3.4 1 1.4 3.1 1.9 5.4 1.2.8-.2 1.5-.6 2.2-1.1 2.8-1.9 4-5.1 2.7-7-1.1-1.4-3.2-1.9-5.4-1.2zM1114.8 142.5c-.6.2-1.2-.1-1.4-.7l-11.6-38c-.2-.5.1-1 .5-1.3.5-.3 1-.1 1.4.2 2.4 2.8 5.5 5 8.3 7 3.7 2.7 7 4.9 7.4 8 .2 1.5-.2 3.1-1.4 4.7-.4.5-1.1.6-1.5.2-.5-.4-.6-1.1-.2-1.5.8-1.1 1.2-2.1 1-3-.3-2.1-3.2-4.2-6.5-6.5-1.8-1.3-3.7-2.6-5.5-4.2l10.3 33.8c.1.5-.2 1.1-.8 1.3z"/><path class="st0" d="M1108.8 151.4c-3.2 1-6.3.2-7.8-2.1-1-1.5-1.2-3.4-.5-5.4.6-1.8 2-3.5 3.8-4.7.9-.6 1.8-1 2.8-1.3 3.2-1 6.3-.2 7.8 2.1 2 3 .5 7.5-3.3 10.1-.9.5-1.8 1-2.8 1.3zm-1.1-11.4c-.8.2-1.5.6-2.2 1.1-1.4 1-2.5 2.2-3 3.6-.4 1.3-.4 2.5.3 3.4 1 1.4 3.1 1.9 5.4 1.2.8-.2 1.5-.6 2.2-1.1 2.8-1.9 4-5.1 2.7-7-1-1.5-3.1-1.9-5.4-1.2z"/></g><path class="st0" d="m36.6 862.4-4.3 18.8 18.4-5.7z"/></svg>