<svg version="1.1" xmlns="http://www.w3.org/2000/svg" x="0" y="0" viewBox="0 0 1200 1200" xml:space="preserve"><style>.st0{fill:#8EB9DD}</style><g id="_x31_6"><path class="st0" d="m137.2 769.8-88.5 27.1c-2.1.7-4.4-.6-5.1-2.7l-9.7-31.9c-.2-.7.2-1.3.8-1.5l93.9-28.7c.7-.2 1.3.2 1.5.8l9.7 31.9c.7 2.1-.5 4.4-2.6 5zm-100.6-7 9.4 30.7c.3.8 1.1 1.3 2 1.1l88.5-27.1c.8-.3 1.3-1.1 1.1-2l-9.4-30.7-91.6 28z"/><path class="st0" d="m129.3 734.4-93.9 28.7c-.7.2-1.3-.2-1.5-.8L32 756c-.7-2.1.6-4.4 2.7-5.1l88.5-27.1c2.1-.7 4.4.6 5.1 2.7l1.9 6.3c.1.7-.2 1.4-.9 1.6zm-93.5 26 91.6-28-1.6-5.1c-.3-.8-1.1-1.3-2-1.1l-88.5 27.1c-.8.3-1.3 1.1-1.1 2l1.6 5.1z"/><path class="st0" d="m55.7 780.7-6.1 1.9c-.7.2-1.3-.2-1.5-.8L41.4 760c-.2-.7.2-1.3.8-1.5l6.1-1.9c.7-.2 1.3.2 1.5.8l6.6 21.7c.3.7-.1 1.4-.7 1.6zm-5.7-.9 3.8-1.1-5.9-19.3-3.8 1.1 5.9 19.3z"/><path class="st0" d="M56.5 794.3c-.7.2-1.3-.2-1.5-.8L51.2 781c-.2-.7.2-1.3.8-1.5s1.3.2 1.5.8l3.8 12.5c.2.6-.2 1.3-.8 1.5zM68.5 790.4c-.7.2-1.3-.2-1.5-.8l-10.1-33.1c-.2-.7.2-1.3.8-1.5s1.3.2 1.5.8l10.1 33.1c.3.6-.1 1.3-.8 1.5zM79.9 773.2l-6.1 1.9c-.7.2-1.3-.2-1.5-.8l-6.6-21.7c-.2-.7.2-1.3.8-1.5l6.1-1.9c.7-.2 1.3.2 1.5.8l6.6 21.7c.2.7-.1 1.3-.8 1.5zm-5.7-.8 3.8-1.1-5.9-19.3-3.8 1.1 5.9 19.3z"/><path class="st0" d="M80.7 786.9c-.7.2-1.3-.2-1.5-.8l-3.8-12.5c-.2-.7.2-1.3.8-1.5.7-.2 1.3.2 1.5.8l3.8 12.5c.2.6-.1 1.3-.8 1.5zM92 769.5l-6.1 1.9c-.7.2-1.3-.2-1.5-.8l-6.6-21.7c-.2-.7.2-1.3.8-1.5l6.1-1.9c.7-.2 1.3.2 1.5.8l6.6 21.7c.3.6-.1 1.3-.8 1.5zm-5.6-.8 3.8-1.1-5.9-19.3-3.8 1.1 5.9 19.3z"/><path class="st0" d="M92.8 783.2c-.7.2-1.3-.2-1.5-.8l-3.8-12.5c-.2-.7.2-1.3.8-1.5.7-.2 1.3.2 1.5.8l3.8 12.5c.3.6-.1 1.3-.8 1.5zM104.9 779.3c-.7.2-1.3-.2-1.5-.8l-10.1-33.1c-.2-.7.2-1.3.8-1.5.7-.2 1.3.2 1.5.8l10.1 33.1c.2.6-.1 1.3-.8 1.5zM116.3 762.1l-6.1 1.9c-.7.2-1.3-.2-1.5-.8l-6.6-21.7c-.2-.7.2-1.3.8-1.5l6.1-1.9c.7-.2 1.3.2 1.5.8l6.6 21.7c.2.6-.2 1.3-.8 1.5zm-5.7-.8 3.8-1.1-5.9-19.3-3.8 1.1 5.9 19.3z"/><path class="st0" d="M117.1 775.7c-.7.2-1.3-.2-1.5-.8l-3.8-12.5c-.2-.7.2-1.3.8-1.5.7-.2 1.3.2 1.5.8l3.8 12.5c.2.6-.1 1.3-.8 1.5zM128.4 758.4l-6.1 1.9c-.7.2-1.3-.2-1.5-.8l-6.6-21.7c-.2-.7.2-1.3.8-1.5l6.1-1.9c.7-.2 1.3.2 1.5.8l6.6 21.7c.2.6-.1 1.3-.8 1.5zm-5.7-.8 3.8-1.1-5.9-19.3-3.8 1.1 5.9 19.3z"/><path class="st0" d="M129.2 772c-.7.2-1.3-.2-1.5-.8l-3.8-12.5c-.2-.7.2-1.3.8-1.5.7-.2 1.3.2 1.5.8l3.8 12.5c.3.6-.1 1.3-.8 1.5z"/></g><g id="_x31_5"><path class="st0" d="M375.8 804.8c-1 .3-2 .2-2.8-.3-.9-.5-1.5-1.3-1.8-2.2-.3-1-.2-2 .3-2.8.5-.9 1.3-1.5 2.2-1.8 1-.3 2-.2 2.8.3.9.5 1.5 1.3 1.8 2.2.3 1 .2 2-.3 2.8-.4.8-1.2 1.5-2.2 1.8zm-1.7-5.6c-.5.2-1 .5-1.2 1-.3.5-.3 1.1-.2 1.6.2.5.5 1 1 1.2.5.3 1.1.3 1.6.2.5-.2 1-.5 1.2-1 .3-.5.3-1.1.2-1.6-.2-.5-.5-1-1-1.2-.5-.3-1-.4-1.6-.2zM357.9 839.3c-3.9 1.2-8 .8-11.5-1.1-3.6-1.9-6.2-5.1-7.4-8.9-1.2-3.9-.8-8 1.1-11.5 1.9-3.6 5.1-6.2 8.9-7.4 3.9-1.2 8-.8 11.5 1.1 3.6 1.9 6.2 5.1 7.4 8.9 1.2 3.9.8 8-1.1 11.5-1.8 3.6-5 6.3-8.9 7.4zm-8.4-27.4c-3.5 1.1-6.3 3.4-8 6.6-1.7 3.2-2 6.8-1 10.3s3.4 6.3 6.6 8c3.2 1.7 6.8 2 10.3 1 3.5-1.1 6.3-3.4 8-6.6 1.7-3.2 2-6.8 1-10.3-1.1-3.5-3.4-6.3-6.6-8-3.2-1.7-6.8-2-10.3-1z"/><path class="st0" d="M359.1 843.4c-5 1.5-10.2 1-14.8-1.4-4.6-2.4-7.9-6.5-9.4-11.4-1.5-5-1-10.2 1.4-14.8 2.4-4.6 6.5-7.9 11.4-9.4 5-1.5 10.2-1 14.8 1.4 4.6 2.4 7.9 6.5 9.4 11.4 1.5 5 1 10.2-1.4 14.8-2.3 4.5-6.4 7.9-11.4 9.4zm-10.8-35.5c-4.5 1.4-8.3 4.5-10.5 8.6-2.2 4.2-2.7 9-1.3 13.5 1.4 4.5 4.5 8.3 8.6 10.5 4.2 2.2 9 2.7 13.5 1.3 4.5-1.4 8.3-4.5 10.5-8.6 2.2-4.2 2.7-9 1.3-13.5-1.4-4.5-4.5-8.3-8.6-10.5-4.2-2.3-9-2.7-13.5-1.3z"/><path class="st0" d="M355.4 831c-1.6.5-3.4.3-4.9-.5-3.1-1.7-4.3-5.6-2.7-8.7.8-1.5 2.2-2.6 3.8-3.1 1.6-.5 3.4-.3 4.9.5 3.1 1.7 4.3 5.6 2.7 8.7-.8 1.5-2.2 2.6-3.8 3.1zm-3.3-10.8c-1.2.4-2.2 1.2-2.8 2.3-1.2 2.3-.4 5.3 2 6.5 1.1.6 2.4.7 3.7.4 1.2-.4 2.2-1.2 2.8-2.3 1.2-2.3.4-5.3-2-6.5-1.2-.6-2.5-.7-3.7-.4z"/><path class="st0" d="M354.5 828.3c-.9.3-1.9.2-2.7-.3-.8-.5-1.5-1.2-1.8-2.1-.3-.9-.2-1.9.3-2.7.5-.8 1.2-1.5 2.1-1.8.9-.3 1.9-.2 2.7.3.8.5 1.5 1.2 1.8 2.1.3.9.2 1.9-.3 2.7-.4.9-1.1 1.5-2.1 1.8zm-1.6-5.3c-.5.2-.9.5-1.2 1-.2.5-.3 1-.1 1.5.2.5.5.9 1 1.2.5.2 1 .3 1.5.1.5-.2.9-.5 1.2-1 .2-.5.3-1 .1-1.5-.2-.5-.5-.9-1-1.2-.5-.2-1-.3-1.5-.1zM348.1 824.7h-.3l-8.3-1c-.4-.1-.8-.5-.7-.9.1-.4.5-.8.9-.7l8.3 1c.4.1.8.5.7.9-.1.4-.3.6-.6.7zM349.8 821.5c-.3.1-.6 0-.9-.2l-5.5-6.3c-.3-.3-.3-.9.1-1.1.3-.3.9-.3 1.1.1l5.5 6.3c.3.3.3.9-.1 1.1 0 .1-.1.1-.2.1zM367.8 827.7h-.3l-8.3-1c-.4-.1-.8-.5-.7-.9.1-.4.5-.8.9-.7l8.3 1c.4.1.8.5.7.9-.1.4-.3.6-.6.7zM363.3 836.2c-.3.1-.6 0-.9-.2l-5.5-6.3c-.3-.3-.3-.9.1-1.1.3-.3.9-.3 1.1.1l5.5 6.3c.3.3.3.9-.1 1.1 0 0-.1.1-.2.1z"/><path class="st0" d="m392 839.9-47.1 14.4c-4.5 1.4-9.3-1.2-10.7-5.7l-10-32.8c-1.4-4.5 1.2-9.3 5.7-10.7l47.1-14.4c4.5-1.4 9.3 1.2 10.7 5.7l10 32.8c1.4 4.5-1.2 9.3-5.7 10.7zm-61.6-33.1c-3.6 1.1-5.7 5-4.6 8.6l10 32.8c1.1 3.6 5 5.7 8.6 4.6l47.1-14.4c3.6-1.1 5.7-5 4.6-8.6l-10-32.8c-1.1-3.6-5-5.7-8.6-4.6l-47.1 14.4z"/><g><path class="st0" d="m378.5 829.6-.7.2c-.4.1-.9-.1-1-.5-.1-.4.1-.9.5-1l.7-.2c2.1-.6 3.2-2.8 2.6-4.9l-6.6-21.7c-.1-.4.1-.9.5-1s.9.1 1 .5l6.6 21.7c1 2.9-.7 6-3.6 6.9z"/></g><g><path class="st0" d="m391 834-2.6.8c-1 .3-2.2-.3-2.5-1.3l-.2-.8c-.3-1 .3-2.2 1.3-2.5l2.6-.8c1-.3 2.2.3 2.5 1.3l.2.8c.3 1.1-.3 2.2-1.3 2.5zm-3.5-2.3c-.2.1-.3.3-.2.5l.2.8c.1.2.3.3.5.2l2.6-.8c.2-.1.3-.3.2-.5l-.2-.8c-.1-.2-.3-.3-.5-.2l-2.6.8z"/></g><g><path class="st0" d="m382.5 836.6-2.6.8c-1 .3-2.2-.3-2.5-1.3l-.2-.8c-.3-1 .3-2.2 1.3-2.5l2.6-.8c1-.3 2.2.3 2.5 1.3l.2.8c.4 1.1-.2 2.2-1.3 2.5zm-3.5-2.3c-.2.1-.3.3-.2.5l.2.8c.1.2.3.3.5.2l2.6-.8c.2-.1.3-.3.2-.5l-.2-.8c-.1-.2-.3-.3-.5-.2l-2.6.8z"/></g><g><path class="st0" d="m390.2 807.8-2.9.9c-.4.1-.9-.1-1-.5s.1-.9.5-1l2.9-.9c.4-.1.9.1 1 .5s0 .8-.5 1z"/></g><g><path class="st0" d="m391.5 811.7-2.9.9c-.4.1-.9-.1-1-.5s.1-.9.5-1l2.9-.9c.4-.1.9.1 1 .5.1.4-.1.9-.5 1z"/></g><g><path class="st0" d="m392.7 815.7-2.9.9c-.4.1-.9-.1-1-.5-.1-.4.1-.9.5-1l2.9-.9c.4-.1.9.1 1 .5s-.1.8-.5 1z"/></g><g><path class="st0" d="m393.9 819.6-2.9.9c-.4.1-.9-.1-1-.5s.1-.9.5-1l2.9-.9c.4-.1.9.1 1 .5s-.1.9-.5 1z"/></g></g><g id="_x31_5_1_"><path class="st0" d="M1001.8 74.7c-1.5.4-3 .3-4.4-.4-1.4-.7-2.4-1.9-2.8-3.4-.4-1.5-.3-3 .4-4.4.7-1.4 1.9-2.4 3.4-2.8 1.5-.4 3-.3 4.4.4 1.4.7 2.4 1.9 2.8 3.4.4 1.5.3 3-.4 4.4-.7 1.3-1.9 2.3-3.4 2.8zm-2.6-8.6c-.8.3-1.5.8-1.9 1.6-.4.8-.5 1.6-.2 2.5.3.8.8 1.5 1.6 1.9.8.4 1.6.5 2.5.2.8-.3 1.5-.8 1.9-1.6.4-.8.5-1.6.2-2.5-.3-.8-.8-1.5-1.6-1.9-.8-.4-1.7-.5-2.5-.2zM974.1 128c-6 1.8-12.3 1.2-17.8-1.7s-9.6-7.8-11.4-13.8c-1.8-6-1.2-12.3 1.7-17.8s7.8-9.6 13.8-11.4c6-1.8 12.3-1.2 17.8 1.7s9.6 7.8 11.4 13.8c1.8 6 1.2 12.3-1.7 17.8s-7.8 9.6-13.8 11.4zm-12.9-42.3c-5.3 1.6-9.7 5.2-12.3 10.2-2.6 4.9-3.2 10.6-1.5 15.9 1.6 5.3 5.2 9.7 10.2 12.3 4.9 2.6 10.6 3.2 15.9 1.5 5.3-1.6 9.7-5.2 12.3-10.2 2.6-4.9 3.2-10.6 1.5-15.9-1.6-5.3-5.2-9.7-10.2-12.3-4.9-2.6-10.6-3.1-15.9-1.5z"/><path class="st0" d="M976.1 134.3c-7.6 2.3-15.7 1.6-22.8-2.2-7.1-3.7-12.2-10-14.6-17.7-2.3-7.6-1.6-15.7 2.2-22.8 3.7-7.1 10-12.2 17.7-14.6 7.6-2.3 15.7-1.6 22.8 2.2 7.1 3.7 12.2 10 14.6 17.7 2.3 7.6 1.6 15.7-2.2 22.8-3.8 7-10.1 12.2-17.7 14.6zm-16.8-54.8c-7 2.1-12.7 6.9-16.2 13.3-3.4 6.5-4.1 13.9-2 20.9 2.1 7 6.9 12.7 13.3 16.2 6.5 3.4 13.9 4.1 20.9 2 7-2.1 12.7-6.9 16.2-13.3 3.4-6.5 4.1-13.9 2-20.9-2.1-7-6.9-12.7-13.3-16.2-6.5-3.5-13.9-4.2-20.9-2z"/><path class="st0" d="M970.2 115.2c-2.5.8-5.2.5-7.6-.7-4.8-2.6-6.7-8.6-4.1-13.4 1.2-2.3 3.3-4.1 5.9-4.8 2.5-.8 5.2-.5 7.6.7 4.8 2.6 6.7 8.6 4.1 13.4-1.3 2.3-3.3 4-5.9 4.8zm-5.1-16.6c-1.9.6-3.5 1.9-4.4 3.6-1.9 3.6-.5 8.1 3.1 10.1 1.8.9 3.8 1.1 5.7.5 1.9-.6 3.5-1.9 4.4-3.6 1.9-3.6.5-8.1-3.1-10.1-1.8-.9-3.8-1.1-5.7-.5z"/><path class="st0" d="M968.9 111c-1.4.4-2.9.3-4.2-.4-1.3-.7-2.3-1.9-2.7-3.3-.4-1.4-.3-2.9.4-4.2.7-1.3 1.9-2.3 3.3-2.7 1.4-.4 2.9-.3 4.2.4 1.3.7 2.3 1.9 2.7 3.3.4 1.4.3 2.9-.4 4.2-.7 1.3-1.8 2.2-3.3 2.7zm-2.5-8.3c-.8.2-1.4.8-1.8 1.5-.4.7-.5 1.5-.2 2.3.2.8.8 1.4 1.5 1.8.7.4 1.5.5 2.3.2.8-.2 1.4-.8 1.8-1.5.4-.7.5-1.5.2-2.3-.2-.8-.8-1.4-1.5-1.8-.7-.3-1.5-.4-2.3-.2zM959 105.4c-.2 0-.3.1-.5 0l-12.9-1.6c-.7-.1-1.2-.7-1.1-1.4.1-.7.7-1.2 1.4-1.1l12.9 1.6c.7.1 1.2.7 1.1 1.4-.1.6-.5 1-.9 1.1zM961.6 100.6c-.5.1-1 0-1.3-.4l-8.5-9.8c-.5-.5-.4-1.3.1-1.8s1.3-.4 1.8.1l8.5 9.8c.5.5.4 1.3-.1 1.8-.2.1-.4.2-.5.3zM989.4 110.1c-.2 0-.3.1-.5 0l-12.9-1.6c-.7-.1-1.2-.7-1.1-1.4.1-.7.7-1.2 1.4-1.1l12.9 1.6c.7.1 1.2.7 1.1 1.4-.1.6-.4 1-.9 1.1zM982.5 123.2c-.5.1-1 0-1.3-.4l-8.5-9.8c-.5-.5-.4-1.3.1-1.8s1.3-.4 1.8.1l8.5 9.8c.5.5.4 1.3-.1 1.8-.2.2-.4.2-.5.3z"/><path class="st0" d="m1026.8 128.9-72.7 22.2c-6.9 2.1-14.3-1.8-16.5-8.7l-15.4-50.5c-2.1-6.9 1.8-14.3 8.7-16.5l72.7-22.2c6.9-2.1 14.3 1.8 16.5 8.7l15.4 50.5c2.2 7-1.8 14.4-8.7 16.5zm-95.1-51.1c-5.6 1.7-8.8 7.7-7.1 13.3l15.4 50.5c1.7 5.6 7.7 8.8 13.3 7.1l72.7-22.2c5.6-1.7 8.8-7.7 7.1-13.3l-15.4-50.5c-1.7-5.6-7.7-8.8-13.3-7.1l-72.7 22.2z"/><g><path class="st0" d="m1005.9 113-1.1.4c-.7.2-1.4-.2-1.6-.8-.2-.7.2-1.4.8-1.6l1.1-.4c3.2-1 5-4.3 4-7.5l-10.3-33.5c-.2-.7.2-1.4.8-1.6.7-.2 1.4.2 1.6.8l10.3 33.5c1.4 4.5-1.1 9.3-5.6 10.7z"/></g><g><path class="st0" d="m1025.2 119.8-3.9 1.2c-1.6.5-3.3-.4-3.8-2l-.4-1.3c-.5-1.6.4-3.3 2-3.8l3.9-1.2c1.6-.5 3.3.4 3.8 2l.4 1.3c.5 1.6-.4 3.3-2 3.8zm-5.4-3.5c-.3.1-.5.4-.4.7l.4 1.3c.1.3.4.5.7.4l3.9-1.2c.3-.1.5-.4.4-.7l-.4-1.3c-.1-.3-.4-.5-.7-.4l-3.9 1.2z"/></g><g><path class="st0" d="m1012.1 123.8-3.9 1.2c-1.6.5-3.3-.4-3.8-2l-.4-1.3c-.5-1.6.4-3.3 2-3.8l3.9-1.2c1.6-.5 3.3.4 3.8 2l.4 1.3c.6 1.6-.4 3.3-2 3.8zm-5.4-3.5c-.3.1-.5.4-.4.7l.4 1.3c.1.3.4.5.7.4l3.9-1.2c.3-.1.5-.4.4-.7l-.4-1.3c-.1-.3-.4-.5-.7-.4l-3.9 1.2z"/></g><g><path class="st0" d="m1024 79.3-4.5 1.4c-.7.2-1.4-.2-1.6-.8-.2-.7.2-1.4.8-1.6l4.5-1.4c.7-.2 1.4.2 1.6.8.3.7-.1 1.4-.8 1.6z"/></g><g><path class="st0" d="m1025.9 85.4-4.5 1.4c-.7.2-1.4-.2-1.6-.8-.2-.7.2-1.4.8-1.6l4.5-1.4c.7-.2 1.4.2 1.6.8.2.7-.2 1.4-.8 1.6z"/></g><g><path class="st0" d="m1027.8 91.5-4.5 1.4c-.7.2-1.4-.2-1.6-.8-.2-.7.2-1.4.8-1.6l4.5-1.4c.7-.2 1.4.2 1.6.8.2.7-.2 1.4-.8 1.6z"/></g><g><path class="st0" d="m1029.6 97.6-4.5 1.4c-.7.2-1.4-.2-1.6-.8-.2-.7.2-1.4.8-1.6l4.5-1.4c.7-.2 1.4.2 1.6.8.2.7-.1 1.4-.8 1.6z"/></g></g><g id="_x31_4"><path class="st0" d="m765 1056.5-1.9.6c-.7.2-1.3-.2-1.5-.8s.2-1.3.8-1.5l1.9-.6c.7-.2 1.3.2 1.5.8s-.1 1.3-.8 1.5zM766.9 1060.5l-1.9.6c-.7.2-1.3-.2-1.5-.8-.2-.7.2-1.3.8-1.5l1.9-.6c.7-.2 1.3.2 1.5.8s-.2 1.3-.8 1.5zM768.8 1064.6l-1.9.6c-.7.2-1.3-.2-1.5-.8-.2-.7.2-1.3.8-1.5l1.9-.6c.7-.2 1.3.2 1.5.8s-.2 1.3-.8 1.5zM780.2 1061.1l-1.9.6c-.7.2-1.3-.2-1.5-.8s.2-1.3.8-1.5l1.9-.6c.7-.2 1.3.2 1.5.8s-.1 1.3-.8 1.5zM779.5 1056.7l-1.9.6c-.7.2-1.3-.2-1.5-.8s.2-1.3.8-1.5l1.9-.6c.7-.2 1.3.2 1.5.8.2.6-.2 1.3-.8 1.5zM778.8 1052.2l-1.9.6c-.7.2-1.3-.2-1.5-.8-.2-.7.2-1.3.8-1.5l1.9-.6c.7-.2 1.3.2 1.5.8s-.2 1.3-.8 1.5zM805.1 1166.4c-7 2.1-14 2-19.7-.5-6.2-2.6-10.5-7.6-12.6-14.3-2-6.6.2-13.2 2.5-17.6 1.3-2.5.8-5.5-1.2-7.4-1.8-1.8-3.1-3.7-3.7-5.8-1.4-4.5-1.1-9 .9-13 1.9-3.8 5.1-6.8 9.3-8.9.6-.3 1.4 0 1.7.6.3.6 0 1.4-.6 1.7-7.8 3.7-11.3 11.2-8.9 18.9.5 1.7 1.6 3.3 3.1 4.8 2.7 2.7 3.4 6.8 1.6 10.3-2 4-4.1 10-2.3 15.8 3.6 11.9 15.7 17.3 29.2 13.1 13.6-4.2 20.5-15.3 16.9-27.2-1.8-5.7-6.8-9.5-10.7-11.7-3.4-1.9-5.2-5.8-4.4-9.5.4-2.1.4-4-.1-5.7-2.4-7.9-9.5-12-18.2-10.7-.7.1-1.3-.4-1.4-1-.1-.7.4-1.3 1-1.4 4.7-.7 9.1 0 12.8 2 3.9 2.2 6.7 5.8 8.1 10.4.6 2.1.7 4.4.2 6.9-.6 2.7.7 5.5 3.2 6.9 4.3 2.4 9.9 6.6 11.9 13.1 2.1 6.8 1.2 13.3-2.5 18.9-3.4 5.1-9.1 9.2-16.1 11.3z"/><path class="st0" d="M793.6 1128.8c-5 1.5-10.4-1.3-11.9-6.3s1.3-10.4 6.3-11.9 10.4 1.3 11.9 6.3c1.6 5-1.3 10.3-6.3 11.9zm-4.9-15.9c-3.7 1.1-5.8 5.1-4.7 8.8 1.1 3.7 5.1 5.8 8.8 4.7 3.7-1.1 5.8-5.1 4.7-8.8-1.1-3.8-5-5.9-8.8-4.7zM810.8 1144.1l-23 7c-.7.2-1.3-.2-1.5-.8l-1.3-4.4c-.2-.7.2-1.3.8-1.5l23-7c.7-.2 1.3.2 1.5.8l1.3 4.4c.3.6-.1 1.3-.8 1.5zm-22.5 4.3 20.6-6.3-.6-2-20.6 6.3.6 2z"/><path class="st0" d="M792 1112.5c-.7.2-1.3-.2-1.5-.8l-13.9-45.4c-.2-.7.2-1.3.8-1.5s1.3.2 1.5.8l13.9 45.4c.2.6-.2 1.3-.8 1.5zM785.8 1114.4c-.7.2-1.3-.2-1.5-.8l-13.9-45.4c-.2-.7.2-1.3.8-1.5s1.3.2 1.5.8l13.9 45.4c.3.6-.1 1.3-.8 1.5z"/><path class="st0" d="m778.9 1066.2-8.1 2.5c-.6.2-1.2-.1-1.5-.7l-7.2-16.7c-.2-.4-.1-.8.1-1.2l2.3-3.5c.2-.2.4-.4.7-.5l5.6-1.7c.3-.1.5-.1.8 0l4.1 1.5c.4.2.7.5.8.9l3.3 17.9c.1.7-.3 1.3-.9 1.5zm-7.8-.2 6-1.8-3-16.1-3-1.1-4.8 1.5-1.7 2.5 6.5 15z"/></g><g id="_x31_3"><path class="st0" d="M160.6 1163.2c-13.4 4.1-23.5 5.7-30.1 4.8-5.2-.7-6.4-2.8-6.6-3.2 0-.1 0-.1-.1-.2l-6.8-22.3c-.2-.7.2-1.3.8-1.5.7-.2 1.3.2 1.5.8l6.8 22.1c.5.6 5.6 5.5 33.7-3 16.2-5 23.5-9.5 26.7-12.3 2.6-2.3 2.9-3.8 2.9-4l-6.8-22.2c-.2-.7.2-1.3.8-1.5.7-.2 1.3.2 1.5.8l6.8 22.3v.2c.1.4.2 2.8-3.7 6.3-4.8 4.5-14.1 8.8-27.4 12.9z"/><path class="st0" d="M154.8 1144.4c-8.8 2.7-17.4 4.5-24.1 5.2-7.6.7-11.6-.2-12.4-2.7-.2-.7.2-1.3.8-1.5.7-.2 1.3.2 1.5.8.1.5 2.2 1.7 9.8 1 6.5-.6 14.9-2.4 23.6-5.1 8.7-2.7 16.6-5.8 22.4-9 6.6-3.6 7.7-5.8 7.6-6.3-.2-.7.2-1.3.8-1.5.7-.2 1.3.2 1.5.8.8 2.5-2.1 5.5-8.8 9.2-5.7 3.2-13.8 6.4-22.7 9.1zM159 1158.3c-8.7 2.7-17.3 4.4-24.2 4.8-7.5.5-11.7-.5-12.4-3-.2-.7.2-1.3.8-1.5.7-.2 1.3.2 1.5.8.2.5 2.3 1.8 9.9 1.3 6.7-.5 15.1-2.1 23.6-4.7 8.5-2.6 16.4-5.9 22.2-9.3 6.6-3.8 7.6-6.1 7.5-6.6-.2-.7.2-1.3.8-1.5.7-.2 1.3.2 1.5.8.8 2.5-2.1 5.7-8.6 9.5-5.8 3.4-13.9 6.8-22.6 9.4z"/><path class="st0" d="M133.4 1163c-.7.2-1.3-.2-1.5-.8l-3.9-12.7c-.2-.7.2-1.3.8-1.5s1.3.2 1.5.8l3.9 12.7c.2.6-.2 1.3-.8 1.5zM143.8 1161.7c-.7.2-1.3-.2-1.5-.8l-4-13c-.2-.7.2-1.3.8-1.5s1.3.2 1.5.8l4 13c.2.6-.1 1.3-.8 1.5zM154 1159.5c-.7.2-1.3-.2-1.5-.8l-4-13c-.2-.7.2-1.3.8-1.5s1.3.2 1.5.8l4 13c.2.6-.2 1.3-.8 1.5zM163.9 1156.5c-.7.2-1.3-.2-1.5-.8l-4-13c-.2-.7.2-1.3.8-1.5.7-.2 1.3.2 1.5.8l4 13c.2.6-.2 1.3-.8 1.5zM173.5 1152.6c-.7.2-1.3-.2-1.5-.8l-4-13c-.2-.7.2-1.3.8-1.5.7-.2 1.3.2 1.5.8l4 13c.2.6-.1 1.3-.8 1.5zM182.9 1147.8c-.7.2-1.3-.2-1.5-.8l-3.9-12.7c-.2-.7.2-1.3.8-1.5.7-.2 1.3.2 1.5.8l3.9 12.7c.2.6-.2 1.3-.8 1.5zM153.3 1139.5c-8.9 2.7-17.4 4.5-24.1 5.2-7.6.7-11.6-.2-12.4-2.7-.8-2.5 2.1-5.5 8.8-9.2 5.9-3.2 14-6.5 22.9-9.2 8.9-2.7 17.4-4.5 24.1-5.2 7.6-.7 11.6.2 12.4 2.7.8 2.5-2.1 5.5-8.8 9.2-5.9 3.2-14.1 6.5-22.9 9.2zm-4.1-13.5c-8.7 2.7-16.7 5.9-22.4 9-6.6 3.6-7.7 5.8-7.6 6.3s2.3 1.7 9.8.9c6.5-.6 14.9-2.4 23.6-5.1 8.7-2.7 16.7-5.9 22.4-9 6.6-3.6 7.7-5.8 7.6-6.3-.1-.5-2.3-1.7-9.8-.9-6.5.6-14.9 2.4-23.6 5.1z"/><path class="st0" d="M110.9 1131.3c-1.6.5-3.9.5-4.9-1.1-.6-.9-.5-2.1.2-3.4.5-1 1.4-1.9 2.2-2.4.5-.3.9-.5 1.3-.6.2-.1.5-.1.7-.1.4 0 .8-.2 1-.4 4.6-3.8 11.2-8.5 16.9-12l47.5-29.3c.1-.1.3-.2.4-.2 1.2-.4 3 .3 4.2 2.2.7 1.2 1 2.4.8 3.5-.2.7-.5 1.2-1 1.5l-47.5 29.3c-6.5 4-13.4 7.8-18.1 9.9-.4.2-.7.5-.9.9-.3.7-.8 1.2-1.4 1.6-.4.2-.8.4-1.4.6zm-.4-5.2c-.2.1-.4.2-.7.4-.5.3-1 .9-1.4 1.5-.3.5-.3.9-.2 1 .1.2.9.4 2 0 .3-.1.6-.2.9-.4.2-.1.4-.3.5-.5.4-1 1.2-1.7 2.1-2.1 4.6-2 11.5-5.8 17.8-9.7l47.4-29.3c.1-.2.1-.9-.4-1.7-.5-.8-1.1-1.1-1.3-1.1l-47.4 29.3c-5.6 3.5-12.2 8.1-16.7 11.8-.7.5-1.5.9-2.4.9-.1-.1-.1-.1-.2-.1z" id="_x31__2_"/><path class="st0" d="M183.8 1109c-.5.2-1 .3-1.5.3-.7 0-1.5-.2-2.1-.5-.4-.2-.8-.3-1.2-.3-5.1.9-13 1.7-20.5 2l-13.6.5c-.7 0-1.3-.5-1.3-1.2s.5-1.3 1.2-1.3l13.6-.5c7.5-.3 15.2-1 20.2-1.9 1-.2 2 0 3 .6.2.1.4.2.7.2.6 0 1.4-.3 1.9-.6s.7-.6.7-.7c0-.1-.2-.4-.7-.7-.6-.3-1.3-.5-1.9-.5-.5 0-.8.1-1 .2-.8.5-1.7.6-2.5.6-5.8-.6-13.8-.8-20.4-.5l-3.3.1c-.7 0-1.3-.5-1.3-1.2s.5-1.3 1.2-1.3l3.3-.1c6.7-.3 14.8-.1 20.8.5.3 0 .7-.1 1.1-.3.5-.3 1.2-.5 2.1-.5 1 0 2.2.2 3.2.8 1.3.7 2 1.7 2 2.7 0 1.1-.6 2.1-1.8 2.9-.8.3-1.3.5-1.9.7z" id="_x31__9_"/><path class="st0" d="M132.4 1111.4c-.1 0-.2 0-.3.1l-29.4 1.2c-.6 0-1.2-.2-1.7-.7-.8-.8-1.3-2-1.4-3.4-.1-1.4.3-2.6 1.1-3.4.5-.5 1-.8 1.6-.8l39.9-1.6c.7 0 1.3.5 1.3 1.2s-.5 1.3-1.2 1.3l-39.8 1.6c-.2.2-.5.7-.5 1.7s.4 1.5.6 1.6l29.3-1.2c.7 0 1.3.5 1.3 1.2.1.6-.3 1.1-.8 1.2z" id="_x31__4_"/></g><g id="_x35_"><path class="st0" d="M167.6 109.6 126 122.3c-4.9 1.5-10.2-1.3-11.7-6.2L94.7 51.8c-1.5-4.9 1.3-10.2 6.2-11.7l41.6-12.7c4.9-1.5 10.2 1.3 11.7 6.2l19.7 64.3c1.4 4.9-1.3 10.2-6.3 11.7zm-66-67.2c-3.6 1.1-5.7 5-4.6 8.6l19.7 64.3c1.1 3.6 5 5.7 8.6 4.6l41.6-12.7c3.6-1.1 5.7-5 4.6-8.6l-19.7-64.3c-1.1-3.6-5-5.7-8.6-4.6l-41.6 12.7z"/><path class="st0" d="M144.1 107.1c-11 3.4-22.8-2.9-26.2-13.9-3.4-11 2.9-22.8 13.9-26.2 11-3.4 22.8 2.9 26.2 13.9 3.4 11.1-2.8 22.8-13.9 26.2zm-11.5-37.7c-9.7 3-15.2 13.3-12.3 23.1s13.3 15.2 23.1 12.3c9.7-3 15.2-13.3 12.3-23.1-3-9.8-13.4-15.3-23.1-12.3z"/><path class="st0" d="M142 100.2c-7.2 2.2-14.9-1.9-17.1-9.1-2.2-7.2 1.9-14.9 9.1-17.1 7.2-2.2 14.9 1.9 17.1 9.1 2.2 7.2-1.9 14.9-9.1 17.1zm-7.3-23.9c-5.9 1.8-9.3 8.1-7.4 14 1.8 5.9 8.1 9.3 14 7.4 5.9-1.8 9.3-8.1 7.4-14-1.8-5.8-8.1-9.2-14-7.4z"/><path class="st0" d="M131.9 90.2c-.7.2-1.3-.2-1.5-.8-1.3-4.2 1.1-8.7 5.3-9.9.7-.2 1.3.2 1.5.8.2.7-.2 1.3-.8 1.5-2.9.9-4.5 4-3.6 6.8.2.7-.2 1.4-.9 1.6zM130.8 63.5c-6 1.8-12.3-1.5-14.1-7.5-1.8-6 1.5-12.3 7.5-14.1 6-1.8 12.3 1.5 14.1 7.5 1.8 5.9-1.6 12.2-7.5 14.1zm-5.9-19.3c-4.6 1.4-7.3 6.4-5.9 11 1.4 4.6 6.4 7.3 11 5.9 4.6-1.4 7.3-6.4 5.9-11-1.4-4.7-6.4-7.3-11-5.9z"/><path class="st0" d="M129 57.6c-2.7.8-5.6-.7-6.4-3.4-.8-2.7.7-5.6 3.4-6.4 2.7-.8 5.6.7 6.4 3.4.8 2.7-.7 5.6-3.4 6.4zm-2.3-7.5c-1.4.4-2.2 1.9-1.8 3.4.4 1.4 1.9 2.2 3.4 1.8 1.4-.4 2.2-1.9 1.8-3.4-.5-1.4-2-2.2-3.4-1.8zM133.4 125.2l-.8.2c-2.1.6-4.2-.5-4.9-2.6l-.7-2.2c-.2-.7.2-1.3.8-1.5l5.9-1.8c.7-.2 1.3.2 1.5.8l.7 2.2c.7 2.1-.4 4.3-2.5 4.9zm-3.6-4.1.3 1c.2.7 1 1.2 1.8.9l.8-.2c.7-.2 1.2-1 .9-1.8l-.3-1-3.5 1.1zM163.9 115.9l-.8.2c-2.1.6-4.2-.5-4.9-2.6l-.7-2.2c-.2-.7.2-1.3.8-1.5l5.9-1.8c.7-.2 1.3.2 1.5.8l.7 2.2c.7 2.1-.5 4.3-2.5 4.9zm-3.6-4.1.3 1c.2.7 1 1.2 1.8.9l.8-.2c.7-.2 1.2-1 .9-1.8l-.3-1-3.5 1.1z"/></g><g id="_x33_"><path class="st0" d="M474.9 172.8c-.5.2-1-.1-1.2-.6L463 137c-.2-.5.1-1 .6-1.2.5-.2 1 .1 1.2.6l10.7 35.1c.2.6-.1 1.1-.6 1.3z"/><path class="st0" d="M464.2 137.6c-.4.1-.9-.1-1.1-.5-.2-.5 0-1 .4-1.3l31.1-14.7c.5-.2 1 0 1.3.4.2.5 0 1-.4 1.3l-31.1 14.7c-.1.1-.2.1-.2.1zM465.9 143.4c-.4.1-.9-.1-1.1-.5-.2-.5 0-1 .4-1.3l31.1-14.7c.5-.2 1 0 1.3.4.2.5 0 1-.4 1.3l-31.1 14.7c-.1.1-.1.1-.2.1zM469.9 180.3c-2.8.8-5.4.1-6.7-1.8-.9-1.3-1-2.9-.4-4.6.5-1.6 1.7-3 3.2-4 .7-.5 1.5-.9 2.4-1.1 2.8-.8 5.4-.1 6.7 1.8.9 1.3 1 2.9.4 4.6-.5 1.6-1.7 3-3.2 4-.8.5-1.6.9-2.4 1.1zm-1-9.7c-.6.2-1.3.5-1.9.9-1.2.8-2.1 1.9-2.5 3.1-.4 1.1-.3 2.1.2 2.9.8 1.2 2.6 1.6 4.6 1 .6-.2 1.3-.5 1.9-.9 1.2-.8 2.1-1.9 2.5-3.1.4-1.1.3-2.1-.2-2.9-.9-1.2-2.6-1.6-4.6-1z"/><path class="st0" d="M506 158c-.5.2-1-.1-1.2-.6l-10.7-35.1c-.2-.5.1-1 .6-1.2s1 .1 1.2.6l10.7 35.1c.2.6-.1 1.1-.6 1.2z"/><path class="st0" d="M501 165.6c-2.8.8-5.4.1-6.7-1.8-1.7-2.6-.5-6.4 2.8-8.6.7-.5 1.5-.9 2.4-1.1 2.8-.8 5.4-.1 6.7 1.8.9 1.3 1 2.9.4 4.6-.5 1.6-1.7 3-3.2 4-.8.5-1.6.9-2.4 1.1zm-1-9.7c-.6.2-1.3.5-1.9.9-2.4 1.6-3.4 4.3-2.3 6 .8 1.2 2.6 1.6 4.6 1 .6-.2 1.3-.5 1.9-.9 1.2-.8 2.1-1.9 2.5-3.1.4-1.1.3-2.1-.2-2.9-.8-1.2-2.6-1.6-4.6-1z"/></g><path class="st0" d="m162 498.3-15.9-8.5 4.8-9 15.9 8.5-4.8 9zm-11.1-9.9 9.7 5.1 1.5-2.7-9.7-5.1-1.5 2.7zM170.7 477.4l-3.2-1.6 17.5-32.6 11-13.8-2-3.1-14.9 7.7.3 6-17.5 32.8-3.1-1.7 17-31.9-.3-7.2 19.7-10.3 5.1 8-12.4 15.6z"/><path class="st0" d="M166.1 510.9c-5.2 1.6-11.8.2-20-4.2-8.6-4.6-13.4-9.4-14.8-14.8-1-3.9-.2-8 2.5-12.1 2.4-3.8 5.1-5.9 7.6-7.9 2.4-1.9 4.6-3.6 6.6-6.8.8-1.3 1-3.6 1.1-5.8.2-2.5.4-5 1.3-7.1 1.5-3.4 4.3-5.9 8.1-7.5 3.6-1.5 6.4-.3 7.6 1.5 1.5 2.5-.4 5.1-2 7.1-.9 1.2-1.9 2.5-2 3.4-.2 2.2 1 3.6 3.6 4.2l-.8 3.4c-4.2-.9-6.6-3.9-6.3-7.9.1-1.9 1.4-3.6 2.7-5.3.7-.9 2-2.7 1.8-3.1-.3-.6-1.6-.8-3.2-.1-1.1.5-4.5 1.9-6.2 5.7-.7 1.5-.9 3.7-1 5.9-.2 2.7-.4 5.4-1.6 7.4-2.3 3.7-4.9 5.7-7.4 7.7-2.4 1.9-4.7 3.7-6.8 7-2.1 3.3-2.8 6.3-2 9.3 1.1 4.4 5.4 8.5 13.1 12.6 7.6 4.1 13.5 5.3 17.7 3.8 2.9-1 5-3.3 6.5-6.9 1.5-3.5 1.5-5.9 1.5-8.3 0-2.7 0-5.5 1.8-9.6 1.1-2.4 3.3-4 5.4-5.5 1.3-.9 2.6-1.8 3.4-2.8 1.1-1.4 2-4.7 1.8-6-.3-1.5-.8-1.9-1-2-.1-.1-.3-.1-.5 0-.5.2-.8.7-1.3 1.5-.8 1.3-1.8 3.1-4.4 3.6-2.6.5-5.5-1.2-6.2-3.7l3.4-1c.2.7 1.3 1.4 2.1 1.3 1-.2 1.4-.8 2.1-2 .7-1.1 1.5-2.5 3.2-3.1 1.2-.4 2.4-.3 3.5.3 1 .5 2.2 1.8 2.7 4.4.5 2.4-.8 6.7-2.5 8.9-1.1 1.4-2.6 2.5-4.1 3.5-1.8 1.3-3.5 2.5-4.2 4-1.5 3.4-1.5 5.6-1.5 8.1 0 2.6 0 5.5-1.8 9.7-1.9 4.5-4.8 7.5-8.6 8.8-.5.3-.7.3-.9.4zM698.6 527.1c-4.3 1.3-9.3.8-14.1-1.8-4.2-2.2-7.4-5.6-8.9-9.5-1.7-4.1-1.4-8.7.8-12.8l1.7-3.1c4.3-8.1 14-10.5 23-5.7s12.4 14.2 8.1 22.3l-1.7 3.1c-1.9 3.8-5.1 6.4-8.9 7.5zm-10.5-31.3c-2.9.9-5.3 2.8-6.9 5.8l-1.7 3.1c-1.7 3.2-1.9 6.6-.7 9.8 1.2 3.1 3.8 5.8 7.3 7.7 7.3 3.9 14.8 2.1 18.3-4.3l1.7-3.1c3.4-6.4.7-13.6-6.7-17.5-3.9-2.1-7.9-2.5-11.3-1.5z"/><path class="st0" d="M704.8 520.8c-1.3.4-2.8.5-4.5.4-3.5-.2-7.6-1.5-11.6-3.6-8.9-4.7-13.8-11.6-11.4-16.1l3.1 1.7c-1 1.9 2.4 7.2 10 11.3 3.5 1.9 7.1 3 10.2 3.2 2.4.2 4.2-.3 4.8-1.3l3.1 1.7c-.8 1.3-2 2.2-3.7 2.7zM670 564.3c-1.1.3-2.3.3-3.3-.3l-5.6-2.9c-2.3-1.2-3-4.1-1.8-6.6l15-29.3-.7-2.2 2.2-7.6 3.4 1-1.9 6.6.8 2.6-15.6 30.4c-.4.8-.2 1.7.3 1.9l5.6 2.9c.4.2 1.3-.1 1.8-1l17.9-29.6 2.6-.8 4.4-5 2.6 2.3-5.1 5.8-2.2.7-17.1 28.4c-.9 1.4-2 2.3-3.3 2.7z"/><path class="st0" d="M677.3 582.1c-2.7.8-5.8.6-8.5-.8l-3.3-1.8c-5.4-2.9-7.5-9.6-4.6-15l2.1-3.9 3.1 1.7-2.1 3.9c-2 3.7-.6 8.3 3.1 10.3l3.3 1.8c3.7 2 8.3.6 10.3-3.1l14.1-26.4c2.9-5.4 9.6-7.5 15-4.6l.1.1c2.6 1.4 4.5 3.7 5.3 6.5.9 2.8.6 5.8-.8 8.5l-3.8 7.2-3.1-1.7 3.8-7.2c1-1.8 1.1-3.8.6-5.8-.6-1.9-1.9-3.5-3.7-4.5h-.1c-3.7-1.9-8.2-.5-10.2 3.2l-14.1 26.4c-1.4 2.5-3.8 4.4-6.5 5.2zM517.2 304.5c-3.8 1.2-10.6-.9-16.4-4l1.7-3.1c8.2 4.3 13.7 4.3 14.1 3.5.4-.8-2.6-5.4-10.8-9.7-8.2-4.3-13.7-4.3-14.1-3.5-.3.6 1.6 4.3 8.5 8.4l-1.8 3c-5.8-3.6-11.9-9.1-9.8-13.1.7-1.4 2.7-2.9 7.7-2 3.3.6 7.3 2 11.2 4.1 7.5 4 14.5 10.2 12.3 14.5-.6.9-1.4 1.5-2.6 1.9z"/><path class="st0" d="m458.4 376.7-3.1-1.7 34-63.9c5.7-10.8 2.8-15.6.4-19.4-.3-.5-.6-1-.9-1.4l3.1-1.7c.2.4.5.9.8 1.3 2.5 4.1 6.4 10.4-.3 22.9l-34 63.9zM468 371.9l-3.1-1.7 29.3-55c6.9-13 15.4-13.5 20.5-13.9.4 0 .8 0 1.1-.1l.3 3.5c-.4 0-.8.1-1.2.1-4.6.3-11.6.8-17.6 12L468 371.9z"/><path class="st0" d="M487.6 365.8c-2.6.8-5.4.6-8-.8-5.1-2.7-7.1-9.1-4.4-14.1l3.1 1.7c-1.8 3.4-.5 7.6 2.9 9.4 3.4 1.8 7.6.5 9.4-2.8l16.7-31.4c1.8-3.4.5-7.6-2.9-9.4-3.4-1.8-7.6-.5-9.4 2.8l-3.1-1.7c2.7-5.1 9.1-7 14.2-4.3s7.1 9.1 4.4 14.1l-16.7 31.4c-1.4 2.6-3.7 4.3-6.2 5.1z"/><path transform="rotate(-61.64 487.309 345.288)" class="st0" d="M485.6 329.2h3.5v32.3h-3.5z"/><path transform="rotate(-62.4 490.723 338.879)" class="st0" d="M489 322.7h3.5V355H489z"/><path transform="rotate(-62 494.21 332.12)" class="st0" d="M492.5 315.9h3.5v32.4h-3.5z"/><path class="st0" d="m441.8 532.3-60.2 18.4c-2.5.8-5.1-.6-5.9-3.1l-12.9-42.2c-.8-2.5.6-5.1 3.1-5.9l60.2-18.4c2.5-.8 5.1.6 5.9 3.1l12.9 42.2c.8 2.4-.6 5.1-3.1 5.9zm-75-29.8c-.8.3-1.3 1.1-1 2l12.9 42.2c.3.8 1.1 1.3 2 1l60.2-18.4c.8-.3 1.3-1.1 1-2L429 485.1c-.3-.8-1.1-1.3-2-1l-60.2 18.4z"/><path transform="rotate(-17.001 417.11 543.05)" class="st0" d="M415.6 538.4h3.2v9.4h-3.2z"/><path transform="rotate(-17.001 408.073 545.813)" class="st0" d="M406.5 541.1h3.2v9.4h-3.2z"/><path transform="rotate(-17.001 413.973 548.95)" class="st0" d="M399.8 547.4h28.4v3.2h-28.4z"/><path transform="rotate(-17.001 408.447 530.877)" class="st0" d="M373.8 529.3h69.3v3.2h-69.3z"/><path transform="rotate(-17.001 409.828 535.395)" class="st0" d="M408.3 533.9h3.2v3.2h-3.2z"/><g><path class="st0" d="M543.2 706.2c-9.7 3-20.1-2.5-23.1-12.3-3-9.7 2.5-20.1 12.3-23.1 9.7-3 20.1 2.5 23.1 12.3s-2.5 20.1-12.3 23.1zm-9.9-32.6c-8.2 2.5-12.9 11.3-10.4 19.5s11.3 12.9 19.5 10.4 12.9-11.3 10.4-19.5-11.3-12.9-19.5-10.4z"/><path class="st0" d="M539.9 695.3c-3.7 1.1-7.7-1-8.9-4.7s1-7.7 4.7-8.9c3.7-1.1 7.7 1 8.9 4.7 1.2 3.8-.9 7.8-4.7 8.9zm-3.3-10.8c-2.2.7-3.5 3.1-2.8 5.3.7 2.2 3.1 3.5 5.3 2.8 2.2-.7 3.5-3.1 2.8-5.3-.7-2.2-3.1-3.5-5.3-2.8zM520.7 671.5c-3.7 1.1-7.7-1-8.9-4.7-1.1-3.7 1-7.7 4.7-8.9 3.7-1.1 7.7 1 8.9 4.7 1.2 3.8-.9 7.7-4.7 8.9zm-3.3-10.9c-2.2.7-3.5 3.1-2.8 5.3.7 2.2 3.1 3.5 5.3 2.8 2.2-.7 3.5-3.1 2.8-5.3-.6-2.2-3-3.5-5.3-2.8z"/><path class="st0" d="m569.8 705.5-48.9 15-19.5-63.8 48.9-15 19.5 63.8zm-47 11.4 43.5-13.3-17.9-58.4-43.5 13.3 17.9 58.4z"/><path transform="rotate(-17.001 526.266 718.757)" class="st0" d="M524.9 717.4h2.8v2.8h-2.8z"/><path transform="rotate(-17.001 564.298 707.129)" class="st0" d="M562.9 705.8h2.8v2.8h-2.8z"/></g><g><path class="st0" d="M547.2 939.1c-5.9 1.8-12.2 2.1-18.3.9-1.6-.3-3.2.4-4 1.8l-.9 1.8c-1.8 3.4-6.3 4.7-9.7 3l-1.7-.9c-1.7-.9-2.9-2.4-3.5-4.2-.6-1.8-.4-3.8.5-5.4l.9-1.8c.7-1.4.4-3.1-.7-4.3-4.4-4.3-7.7-9.8-9.5-15.7s-2.1-12.2-.9-18.3c.3-1.6-.4-3.2-1.8-4l-1.6-1c-1.7-.9-2.9-2.4-3.5-4.2-.6-1.8-.4-3.8.5-5.4l.9-1.7c1.8-3.4 6.3-4.7 9.7-3l1.8.9c1.4.7 3.1.4 4.3-.7 8.7-8.8 21.9-12.8 34-10.4 1.6.3 3.2-.4 4-1.8l.9-1.8c1.8-3.4 6.3-4.7 9.7-3l1.7.9c1.7.9 2.9 2.4 3.5 4.2.6 1.8.4 3.8-.5 5.4l-.9 1.8c-.7 1.4-.4 3.1.7 4.3 4.4 4.3 7.7 9.8 9.5 15.7 1.8 5.9 2.1 12.2.9 18.3-.3 1.6.4 3.2 1.8 4l1.8.9c1.7.9 2.9 2.4 3.5 4.2.6 1.8.4 3.8-.5 5.4l-.9 1.7c-1.8 3.4-6.3 4.7-9.7 3l-1.8-.9c-1.4-.7-3.1-.4-4.3.7-4.5 4.5-9.9 7.8-15.9 9.6zm-21.2-2.4c1.1-.4 2.4-.4 3.7-.2 10.9 2.2 22.9-1.4 30.7-9.4 2.3-2.3 5.7-2.9 8.5-1.4l1.8.9c1.7.9 3.9.2 4.8-1.5l.9-1.7c.4-.8.5-1.8.3-2.7-.3-.9-.9-1.7-1.7-2.1l-1.8-.9c-2.8-1.5-4.3-4.6-3.6-7.8 1.1-5.5.8-11.2-.8-16.5-1.6-5.3-4.6-10.3-8.6-14.2-2.3-2.3-2.9-5.7-1.4-8.5l.9-1.8c.4-.8.5-1.8.3-2.7-.3-.9-.9-1.7-1.7-2.1l-1.7-.9c-1.7-.9-3.9-.2-4.8 1.5l-.9 1.8c-1.5 2.8-4.6 4.3-7.8 3.6-10.9-2.2-22.9 1.4-30.7 9.4-2.3 2.3-5.7 2.9-8.5 1.4l-1.8-.9c-1.7-.9-3.9-.2-4.8 1.5l-.9 1.7c-.4.8-.5 1.8-.3 2.7.3.9.9 1.7 1.7 2.1l1.8.9c2.8 1.5 4.3 4.6 3.6 7.8-1.1 5.5-.8 11.2.8 16.5 1.6 5.3 4.6 10.3 8.6 14.2 2.3 2.3 2.9 5.7 1.4 8.5l-.9 1.8c-.4.8-.5 1.8-.3 2.7.3.9.9 1.7 1.7 2.1l1.7.9c1.7.9 3.9.2 4.8-1.5l.9-1.8c.8-1.7 2.3-2.9 4.1-3.4z"/><path class="st0" d="M544.6 930.6c-15.1 4.6-31.1-3.9-35.7-19-4.6-15.1 3.9-31.1 19-35.7 15.1-4.6 31.1 3.9 35.7 19 4.6 15.1-3.9 31.1-19 35.7zM529 879.4c-13.2 4-20.6 18-16.6 31.2s18 20.6 31.2 16.6 20.6-18 16.6-31.2-18.1-20.6-31.2-16.6z"/><path class="st0" d="M540.5 916.9c-7.5 2.3-15.5-2-17.8-9.5s2-15.5 9.5-17.8c7.5-2.3 15.5 2 17.8 9.5 2.2 7.5-2 15.5-9.5 17.8zm-7.4-23.9c-5.6 1.7-8.8 7.7-7.1 13.4 1.7 5.6 7.7 8.8 13.4 7.1 5.6-1.7 8.8-7.7 7.1-13.4-1.7-5.6-7.7-8.8-13.4-7.1z"/><path class="st0" d="M530 907.1c-.9.3-1.9-.2-2.2-1.2-1.4-4.7 1.2-9.7 5.9-11.1.9-.3 1.9.2 2.2 1.2.3.9-.2 1.9-1.2 2.2-2.8.9-4.4 3.9-3.6 6.7.3.9-.2 1.9-1.1 2.2z"/></g><g><path class="st0" d="m497.3 1140.4-12.9-6.8 3.9-7.3 12.9 6.8-3.9 7.3zm-9-8.1 7.8 4.2 1.2-2.2-7.8-4.2-1.2 2.2zM504.3 1123.5l-2.5-1.3 14.2-26.4 8.8-11.1-1.6-2.6-12 6.3.2 4.8-14.1 26.5-2.5-1.3 13.7-25.9-.2-5.8 15.9-8.3 4.1 6.5-10 12.6z"/><path class="st0" d="M500.7 1150.6c-4.2 1.3-9.5.2-16.2-3.4-6.9-3.7-10.9-7.6-12-12-.8-3.1-.1-6.4 2-9.8 2-3.1 4.1-4.7 6.2-6.4 1.9-1.5 3.7-2.9 5.3-5.5.6-1 .8-2.9.9-4.7.1-2 .3-4 1.1-5.7 1.2-2.7 3.4-4.8 6.5-6.1 2.9-1.2 5.2-.3 6.1 1.2 1.2 2-.3 4.1-1.6 5.8-.7 1-1.5 2-1.6 2.7-.1 1.8.8 2.9 2.9 3.4l-.6 2.8c-3.4-.8-5.3-3.1-5.1-6.4.1-1.5 1.1-2.9 2.2-4.3.5-.7 1.7-2.2 1.4-2.5-.3-.5-1.3-.6-2.6-.1-.9.4-3.6 1.5-5 4.6-.6 1.2-.7 3-.8 4.8-.2 2.2-.3 4.4-1.3 6-1.8 3-3.9 4.6-6 6.2-2 1.5-3.8 3-5.5 5.7-1.7 2.7-2.3 5.1-1.6 7.5.9 3.6 4.4 6.9 10.6 10.2 6.2 3.3 10.9 4.3 14.4 3.1 2.3-.8 4-2.6 5.3-5.6 1.2-2.9 1.2-4.7 1.2-6.7 0-2.2 0-4.5 1.5-7.8.9-2 2.6-3.2 4.3-4.4 1.1-.8 2.1-1.5 2.7-2.3.9-1.2 1.6-3.8 1.5-4.8-.2-1.2-.7-1.5-.8-1.6-.1-.1-.2-.1-.4 0-.4.1-.6.6-1.1 1.3-.6 1.1-1.5 2.5-3.5 2.9-2.1.4-4.4-1-5-3l2.7-.8c.2.6 1.1 1.1 1.7 1 .8-.2 1.1-.7 1.7-1.6.5-.9 1.2-2 2.6-2.5 1-.4 2-.3 2.8.2.8.4 1.8 1.4 2.2 3.6.4 1.9-.6 5.4-2 7.2-.9 1.1-2.1 2-3.3 2.8-1.4 1-2.8 2-3.4 3.2-1.2 2.8-1.2 4.5-1.2 6.6 0 2.1 0 4.5-1.4 7.9-1.6 3.6-3.9 6-7 7.1-.5.1-.7.1-.8.2z"/></g><g id="_x31_6_1_"><path class="st0" d="m1001.1 1020.5-88.5 27.1c-2.1.7-4.4-.6-5.1-2.7l-9.7-31.9c-.2-.7.2-1.3.8-1.5l93.9-28.7c.7-.2 1.3.2 1.5.8l9.7 31.9c.7 2-.5 4.3-2.6 5zm-100.6-7.1 9.4 30.7c.3.8 1.1 1.3 2 1.1l88.5-27.1c.8-.3 1.3-1.1 1.1-2l-9.4-30.7-91.6 28z"/><path class="st0" d="m993.2 985.1-93.9 28.7c-.7.2-1.3-.2-1.5-.8l-1.9-6.3c-.7-2.1.6-4.4 2.7-5.1l88.5-27.1c2.1-.7 4.4.6 5.1 2.7l1.9 6.3c.2.7-.2 1.4-.9 1.6zm-93.4 26 91.6-28-1.6-5.1c-.3-.8-1.1-1.3-2-1.1l-88.5 27.1c-.8.3-1.3 1.1-1.1 2l1.6 5.1z"/><path class="st0" d="m919.6 1031.3-6.1 1.9c-.7.2-1.3-.2-1.5-.8l-6.6-21.7c-.2-.7.2-1.3.8-1.5l6.1-1.9c.7-.2 1.3.2 1.5.8l6.6 21.7c.2.6-.2 1.3-.8 1.5zm-5.7-.8 3.8-1.1-5.9-19.3-3.8 1.1 5.9 19.3z"/><path class="st0" d="M920.4 1044.9c-.7.2-1.3-.2-1.5-.8l-3.8-12.5c-.2-.7.2-1.3.8-1.5s1.3.2 1.5.8l3.8 12.5c.2.6-.1 1.3-.8 1.5zM932.5 1041.1c-.7.2-1.3-.2-1.5-.8l-10.1-33.1c-.2-.7.2-1.3.8-1.5s1.3.2 1.5.8l10.1 33.1c.2.6-.2 1.3-.8 1.5zM943.8 1023.9l-6.1 1.9c-.7.2-1.3-.2-1.5-.8l-6.6-21.7c-.2-.7.2-1.3.8-1.5l6.1-1.9c.7-.2 1.3.2 1.5.8l6.6 21.7c.3.6-.1 1.3-.8 1.5zm-5.6-.9 3.8-1.1-5.9-19.3-3.8 1.1 5.9 19.3z"/><path class="st0" d="M944.6 1037.5c-.7.2-1.3-.2-1.5-.8l-3.8-12.5c-.2-.7.2-1.3.8-1.5s1.3.2 1.5.8l3.8 12.5c.3.6-.1 1.3-.8 1.5zM956 1020.2l-6.1 1.9c-.7.2-1.3-.2-1.5-.8l-6.6-21.7c-.2-.7.2-1.3.8-1.5l6.1-1.9c.7-.2 1.3.2 1.5.8l6.6 21.7c.2.6-.2 1.3-.8 1.5zm-5.7-.9 3.8-1.1-5.9-19.3-3.8 1.1 5.9 19.3z"/><path class="st0" d="M956.8 1033.8c-.7.2-1.3-.2-1.5-.8l-3.8-12.5c-.2-.7.2-1.3.8-1.5.7-.2 1.3.2 1.5.8l3.8 12.5c.2.6-.2 1.3-.8 1.5zM968.9 1029.9c-.7.2-1.3-.2-1.5-.8L957.2 996c-.2-.7.2-1.3.8-1.5s1.3.2 1.5.8l10.1 33.1c.3.6-.1 1.3-.7 1.5zM980.2 1012.8l-6.1 1.9c-.7.2-1.3-.2-1.5-.8l-6.6-21.7c-.2-.7.2-1.3.8-1.5l6.1-1.9c.7-.2 1.3.2 1.5.8l6.6 21.7c.2.6-.1 1.3-.8 1.5zm-5.6-.9 3.8-1.1-5.9-19.3-3.8 1.1 5.9 19.3z"/><path class="st0" d="M981 1026.4c-.7.2-1.3-.2-1.5-.8l-3.8-12.5c-.2-.7.2-1.3.8-1.5s1.3.2 1.5.8l3.8 12.5c.3.6-.1 1.3-.8 1.5zM992.3 1009.1l-6.1 1.9c-.7.2-1.3-.2-1.5-.8l-6.6-21.7c-.2-.7.2-1.3.8-1.5l6.1-1.9c.7-.2 1.3.2 1.5.8l6.6 21.7c.3.6-.1 1.3-.8 1.5zm-5.6-.9 3.8-1.1-5.9-19.3-3.8 1.1 5.9 19.3z"/><path class="st0" d="M993.2 1022.7c-.7.2-1.3-.2-1.5-.8l-3.8-12.5c-.2-.7.2-1.3.8-1.5s1.3.2 1.5.8l3.8 12.5c.2.6-.2 1.3-.8 1.5z"/></g><g id="_x35__1_"><path class="st0" d="m1121.7 448-41.6 12.7c-4.9 1.5-10.2-1.3-11.7-6.2l-19.7-64.3c-1.5-4.9 1.3-10.2 6.2-11.7l41.6-12.7c4.9-1.5 10.2 1.3 11.7 6.2l19.7 64.3c1.6 4.9-1.2 10.2-6.2 11.7zm-66-67.1c-3.6 1.1-5.7 5-4.6 8.6l19.7 64.3c1.1 3.6 5 5.7 8.6 4.6l41.6-12.7c3.6-1.1 5.7-5 4.6-8.6l-19.7-64.3c-1.1-3.6-5-5.7-8.6-4.6l-41.6 12.7z"/><path class="st0" d="M1098.2 445.5c-11 3.4-22.8-2.9-26.2-13.9s2.9-22.8 13.9-26.2 22.8 2.9 26.2 13.9c3.4 11.1-2.8 22.8-13.9 26.2zm-11.5-37.7c-9.7 3-15.2 13.3-12.3 23.1 3 9.7 13.3 15.2 23.1 12.3 9.7-3 15.2-13.3 12.3-23.1-3-9.7-13.3-15.2-23.1-12.3z"/><path class="st0" d="M1096.1 438.6c-7.2 2.2-14.9-1.9-17.1-9.1-2.2-7.2 1.9-14.9 9.1-17.1s14.9 1.9 17.1 9.1-1.9 14.9-9.1 17.1zm-7.3-23.8c-5.9 1.8-9.3 8.1-7.4 14 1.8 5.9 8.1 9.3 14 7.4 5.9-1.8 9.3-8.1 7.4-14-1.8-5.9-8.1-9.2-14-7.4z"/><path class="st0" d="M1086 428.6c-.7.2-1.3-.2-1.5-.8-1.3-4.2 1.1-8.7 5.3-9.9.7-.2 1.3.2 1.5.8s-.2 1.3-.8 1.5c-2.9.9-4.5 4-3.6 6.8.2.7-.2 1.4-.9 1.6zM1084.9 401.9c-6 1.8-12.3-1.5-14.1-7.5-1.8-6 1.5-12.3 7.5-14.1 6-1.8 12.3 1.5 14.1 7.5 1.8 5.9-1.5 12.3-7.5 14.1zm-5.9-19.2c-4.6 1.4-7.3 6.4-5.9 11s6.4 7.3 11 5.9c4.6-1.4 7.3-6.4 5.9-11s-6.3-7.4-11-5.9z"/><path class="st0" d="M1083.1 396c-2.7.8-5.6-.7-6.4-3.4-.8-2.7.7-5.6 3.4-6.4s5.6.7 6.4 3.4c.9 2.7-.7 5.6-3.4 6.4zm-2.3-7.5c-1.4.4-2.2 1.9-1.8 3.4.4 1.4 1.9 2.2 3.4 1.8 1.4-.4 2.2-1.9 1.8-3.4-.5-1.4-2-2.2-3.4-1.8zM1087.5 463.6l-.8.2c-2.1.6-4.2-.5-4.9-2.6l-.7-2.2c-.2-.7.2-1.3.8-1.5l5.9-1.8c.7-.2 1.3.2 1.5.8l.7 2.2c.7 2.1-.4 4.3-2.5 4.9zm-3.5-4 .3 1c.2.7 1 1.2 1.8.9l.8-.2c.7-.2 1.2-1 .9-1.8l-.3-1-3.5 1.1zM1118 454.3l-.8.2c-2.1.6-4.2-.5-4.9-2.6l-.7-2.2c-.2-.7.2-1.3.8-1.5l5.9-1.8c.7-.2 1.3.2 1.5.8l.7 2.2c.7 2.1-.4 4.3-2.5 4.9zm-3.6-4.1.3 1c.2.7 1 1.2 1.8.9l.8-.2c.7-.2 1.2-1 .9-1.8l-.3-1-3.5 1.1z"/></g><g id="_x33__1_"><path class="st0" d="M898.4 675.9c-.5.2-1-.1-1.2-.6l-10.7-35.1c-.2-.5.1-1 .6-1.2.5-.2 1 .1 1.2.6l10.7 35.1c.1.6-.2 1.1-.6 1.2z"/><path class="st0" d="M887.6 640.8c-.4.1-.9-.1-1.1-.5-.2-.5 0-1 .4-1.3l31.1-14.7c.5-.2 1 0 1.3.4.2.5 0 1-.4 1.3l-31.1 14.7c-.1.1-.1.1-.2.1zM889.4 646.6c-.4.1-.9-.1-1.1-.5-.2-.5 0-1 .4-1.3l31.1-14.7c.5-.2 1 0 1.3.4.2.5 0 1-.4 1.3l-31.1 14.7c-.1.1-.2.1-.2.1zM893.3 683.5c-2.8.8-5.4.1-6.7-1.8-.9-1.3-1-2.9-.4-4.6.5-1.6 1.7-3 3.2-4 .7-.5 1.5-.9 2.4-1.1 2.8-.8 5.4-.1 6.7 1.8.9 1.3 1 2.9.4 4.6-.5 1.6-1.7 3-3.2 4-.8.5-1.6.9-2.4 1.1zm-.9-9.7c-.6.2-1.3.5-1.9.9-1.2.8-2.1 1.9-2.5 3.1-.4 1.1-.3 2.1.2 2.9.8 1.2 2.6 1.6 4.6 1 .6-.2 1.3-.5 1.9-.9 1.2-.8 2.1-1.9 2.5-3.1.4-1.1.3-2.1-.2-2.9-.9-1.2-2.7-1.6-4.6-1z"/><path class="st0" d="M929.5 661.2c-.5.2-1-.1-1.2-.6l-10.7-35.1c-.2-.5.1-1 .6-1.2.5-.2 1 .1 1.2.6l10.7 35.1c.1.5-.1 1.1-.6 1.2z"/><path class="st0" d="M924.4 668.8c-2.8.8-5.4.1-6.7-1.8-1.7-2.6-.5-6.4 2.8-8.6.7-.5 1.5-.9 2.4-1.1 2.8-.8 5.4-.1 6.7 1.8.9 1.3 1 2.9.4 4.6-.5 1.6-1.7 3-3.2 4-.8.5-1.6.8-2.4 1.1zm-.9-9.7c-.6.2-1.3.5-1.9.9-2.4 1.6-3.4 4.3-2.3 6 .8 1.2 2.6 1.6 4.6 1 .6-.2 1.3-.5 1.9-.9 1.2-.8 2.1-1.9 2.5-3.1.4-1.1.3-2.1-.2-2.9-.9-1.2-2.7-1.6-4.6-1z"/></g><g><path class="st0" d="m942.9 816.9-15.9-8.5 4.8-9 15.9 8.5-4.8 9zm-11.1-9.9 9.7 5.1 1.5-2.7-9.7-5.1-1.5 2.7zM951.6 796.1l-3.1-1.7 17.4-32.6 11-13.7-2-3.2-14.8 7.8.2 6-17.4 32.8-3.2-1.7 17-32-.3-7.2 19.8-10.3 5 8-12.4 15.6z"/><path class="st0" d="M947.1 829.6c-5.2 1.6-11.8.2-20-4.2-8.6-4.6-13.4-9.4-14.8-14.8-1-3.9-.2-8 2.5-12.1 2.4-3.8 5.1-5.9 7.6-7.9 2.4-1.9 4.6-3.6 6.6-6.8.8-1.3 1-3.6 1.1-5.8.2-2.5.4-5 1.3-7.1 1.5-3.4 4.3-5.9 8.1-7.5 3.6-1.5 6.4-.3 7.6 1.5 1.5 2.5-.4 5.1-2 7.1-.9 1.2-1.9 2.5-2 3.4-.2 2.2 1 3.6 3.6 4.2l-.8 3.4c-4.2-.9-6.6-3.9-6.3-7.9.1-1.9 1.4-3.6 2.7-5.3.7-.9 2-2.7 1.8-3.1-.3-.6-1.6-.8-3.2-.1-1.1.5-4.5 1.9-6.2 5.7-.7 1.5-.9 3.7-1 5.9-.2 2.7-.4 5.4-1.6 7.4-2.3 3.7-4.9 5.7-7.4 7.7-2.4 1.9-4.7 3.7-6.8 7-2.1 3.3-2.8 6.3-2 9.3 1.1 4.4 5.4 8.5 13.1 12.6 7.6 4.1 13.5 5.3 17.7 3.8 2.9-1 5-3.3 6.5-6.9 1.5-3.5 1.5-5.9 1.5-8.3 0-2.7 0-5.5 1.8-9.6 1.1-2.4 3.3-4 5.4-5.5 1.3-.9 2.6-1.8 3.4-2.8 1.1-1.4 2-4.7 1.8-6-.3-1.5-.8-1.9-1-2-.1-.1-.3-.1-.5 0-.5.2-.8.7-1.3 1.5-.8 1.3-1.8 3.1-4.4 3.6-2.6.5-5.5-1.2-6.2-3.7l3.4-1c.2.7 1.3 1.4 2.1 1.3 1-.2 1.4-.8 2.1-2 .7-1.1 1.5-2.5 3.2-3.1 1.2-.4 2.4-.3 3.5.3 1 .5 2.2 1.8 2.7 4.4.5 2.4-.8 6.7-2.5 8.9-1.1 1.4-2.6 2.5-4.1 3.5-1.8 1.3-3.5 2.5-4.2 4-1.5 3.4-1.5 5.6-1.5 8.1 0 2.6 0 5.5-1.8 9.7-1.9 4.5-4.8 7.5-8.6 8.8-.6.2-.8.3-.9.4z"/></g><g><path class="st0" d="M1097.9 1097.6c-4.3 1.3-9.3.8-14.1-1.8-4.2-2.2-7.4-5.6-8.9-9.5-1.7-4.1-1.4-8.7.8-12.8l1.7-3.1c4.3-8.1 14-10.5 23-5.7s12.4 14.2 8.1 22.3l-1.7 3.1c-1.9 3.8-5.1 6.4-8.9 7.5zm-10.5-31.3c-2.9.9-5.3 2.8-6.9 5.8l-1.7 3.1c-1.7 3.2-1.9 6.6-.7 9.8 1.2 3.1 3.8 5.8 7.3 7.7 7.3 3.9 14.8 2.1 18.3-4.3l1.7-3.1c3.4-6.4.7-13.6-6.7-17.5-3.9-2.1-7.9-2.5-11.3-1.5z"/><path class="st0" d="M1104.1 1091.3c-1.3.4-2.8.5-4.5.4-3.5-.2-7.6-1.5-11.6-3.6-8.9-4.7-13.8-11.6-11.4-16.1l3.1 1.7c-1 1.9 2.4 7.2 10 11.3 3.5 1.9 7.1 3 10.2 3.2 2.4.2 4.2-.3 4.8-1.3l3.1 1.7c-.8 1.3-2 2.2-3.7 2.7zM1069.3 1134.8c-1.1.3-2.3.3-3.3-.3l-5.6-2.9c-2.3-1.2-3-4.1-1.8-6.6l15-29.3-.7-2.2 2.2-7.6 3.4 1-1.9 6.6.8 2.6-15.6 30.5c-.4.8-.2 1.7.3 1.9l5.6 2.9c.4.2 1.3-.1 1.8-1l17.9-29.6 2.6-.8 4.4-5 2.6 2.3-5.1 5.8-2.2.7-17.1 28.4c-.9 1.3-2 2.2-3.3 2.6z"/><path class="st0" d="M1076.6 1152.6c-2.7.8-5.8.6-8.5-.8l-3.3-1.8c-5.4-2.9-7.5-9.6-4.6-15l2.1-3.9 3.1 1.7-2.1 3.9c-2 3.7-.6 8.3 3.1 10.3l3.3 1.8c3.7 2 8.3.6 10.3-3.1l14.1-26.4c2.9-5.4 9.6-7.5 15-4.6l.1.1c2.6 1.4 4.5 3.7 5.3 6.5.9 2.8.6 5.8-.8 8.5l-3.8 7.2-3.1-1.7 3.8-7.2c1-1.8 1.1-3.8.6-5.8-.6-1.9-1.9-3.5-3.7-4.5h-.1c-3.7-1.9-8.2-.5-10.2 3.2l-14.1 26.4c-1.4 2.5-3.8 4.4-6.5 5.2z"/></g><g><path class="st0" d="M880.1 297.6c-3.8 1.2-10.6-.9-16.4-4l1.7-3.1c8.2 4.3 13.7 4.3 14.1 3.5.4-.8-2.6-5.4-10.8-9.7-8.2-4.3-13.7-4.3-14.1-3.5-.3.6 1.6 4.3 8.5 8.4l-1.8 3c-5.8-3.6-11.9-9.1-9.8-13.1.7-1.4 2.7-2.9 7.7-2 3.3.6 7.3 2 11.2 4.1 7.5 4 14.5 10.2 12.3 14.5-.6.9-1.5 1.6-2.6 1.9z"/><path class="st0" d="m821.3 369.8-3.1-1.7 34-63.9c5.7-10.8 2.8-15.6.4-19.4-.3-.5-.6-1-.9-1.4l3.1-1.7c.2.4.5.9.8 1.3 2.5 4.1 6.4 10.4-.3 22.9l-34 63.9zM830.9 365l-3.1-1.7 29.3-55c6.9-13 15.4-13.5 20.5-13.9.4 0 .8 0 1.1-.1l.3 3.5c-.4 0-.8.1-1.2.1-4.6.3-11.6.8-17.6 12L830.9 365z"/><path class="st0" d="M850.4 358.9c-2.6.8-5.4.6-8-.8-5.1-2.7-7.1-9.1-4.4-14.1l3.1 1.7c-1.8 3.4-.5 7.6 2.9 9.4 3.4 1.8 7.6.5 9.4-2.8l16.7-31.4c1.8-3.4.5-7.6-2.9-9.4-3.4-1.8-7.6-.5-9.4 2.8l-3.1-1.7c2.7-5.1 9.1-7 14.2-4.3s7.1 9.1 4.4 14.1l-16.7 31.4c-1.4 2.6-3.6 4.4-6.2 5.1z"/><path transform="rotate(-61.64 850.14 338.43)" class="st0" d="M848.4 322.3h3.5v32.3h-3.5z"/><path transform="rotate(-62.4 853.558 332.024)" class="st0" d="M851.8 315.9h3.5v32.3h-3.5z"/><path transform="rotate(-62 857.034 325.258)" class="st0" d="M855.3 309.1h3.5v32.4h-3.5z"/></g><g><path class="st0" d="m1137.7 780.4-60.2 18.4c-2.5.8-5.1-.6-5.9-3.1l-12.9-42.2c-.8-2.5.6-5.1 3.1-5.9l60.2-18.4c2.5-.8 5.1.6 5.9 3.1l12.9 42.2c.8 2.5-.7 5.1-3.1 5.9zm-75-29.8c-.8.3-1.3 1.1-1 2l12.9 42.2c.3.8 1.1 1.3 2 1l60.2-18.4c.8-.3 1.3-1.1 1-2l-12.9-42.2c-.3-.8-1.1-1.3-2-1l-60.2 18.4z"/><path transform="rotate(-17.001 1112.884 791.14)" class="st0" d="M1111.4 786.5h3.2v9.4h-3.2z"/><path transform="rotate(-17.001 1103.848 793.903)" class="st0" d="M1102.4 789.2h3.2v9.4h-3.2z"/><path transform="rotate(-17.001 1109.747 797.04)" class="st0" d="M1095.7 795.5h28.4v3.2h-28.4z"/><path transform="rotate(-17.001 1104.222 778.967)" class="st0" d="M1069.7 777.5h69.3v3.2h-69.3z"/><path transform="rotate(-17.001 1105.603 783.486)" class="st0" d="M1104.1 782h3.2v3.2h-3.2z"/></g><g><path class="st0" d="M683.9 228.9c-5.9 1.8-12.2 2.1-18.3.9-1.6-.3-3.2.4-4 1.8l-.9 1.8c-1.8 3.4-6.3 4.7-9.7 3l-1.7-.9c-1.7-.9-2.9-2.4-3.5-4.2-.6-1.8-.4-3.8.5-5.4l.9-1.8c.7-1.4.4-3.1-.7-4.3-4.4-4.3-7.7-9.8-9.5-15.7-1.8-5.9-2.1-12.2-.9-18.3.3-1.6-.4-3.2-1.8-4l-1.8-.9c-1.7-.9-2.9-2.4-3.5-4.2-.6-1.8-.4-3.8.5-5.4l.9-1.7c1.8-3.4 6.3-4.7 9.7-3l1.8.9c1.4.7 3.1.4 4.3-.7 8.7-8.8 21.9-12.8 34-10.4 1.6.3 3.2-.4 4-1.8l.9-1.8c1.8-3.4 6.3-4.7 9.7-3l1.7.9c1.7.9 2.9 2.4 3.5 4.2.6 1.8.4 3.8-.5 5.4l-.9 1.8c-.7 1.4-.4 3.1.7 4.3 4.4 4.3 7.7 9.8 9.5 15.7 1.8 5.9 2.1 12.2.9 18.3-.3 1.6.4 3.2 1.8 4l1.8.9c1.7.9 2.9 2.4 3.5 4.2.6 1.8.4 3.8-.5 5.4l-.9 1.7c-1.8 3.4-6.3 4.7-9.7 3l-1.8-.9c-1.4-.7-3.1-.4-4.3.7-4.4 4.4-9.8 7.7-15.7 9.5zm-21.2-2.4c1.1-.4 2.4-.4 3.7-.2 10.9 2.2 22.9-1.4 30.7-9.4 2.3-2.3 5.7-2.9 8.5-1.4l1.8.9c1.7.9 3.9.2 4.8-1.5l.9-1.7c.4-.8.5-1.8.3-2.7-.3-.9-.9-1.7-1.7-2.1l-1.8-.9c-2.8-1.5-4.3-4.6-3.6-7.8 1.1-5.5.8-11.2-.8-16.5-1.6-5.3-4.6-10.3-8.6-14.2-2.3-2.3-2.9-5.7-1.4-8.5l.9-1.8c.4-.8.5-1.8.3-2.7-.3-.9-.9-1.7-1.7-2.1l-1.7-.9c-1.7-.9-3.9-.2-4.8 1.5l-.9 1.8c-1.5 2.8-4.6 4.3-7.8 3.6-10.9-2.2-22.9 1.4-30.7 9.4-2.3 2.3-5.7 2.9-8.5 1.4l-1.8-.9c-1.7-.9-3.9-.2-4.8 1.5l-.9 1.7c-.4.8-.5 1.8-.3 2.7.3.9.9 1.7 1.7 2.1l1.8.9c2.8 1.5 4.3 4.6 3.6 7.8-1.1 5.5-.8 11.2.8 16.5 1.6 5.3 4.6 10.3 8.6 14.2 2.3 2.3 2.9 5.7 1.4 8.5l-.9 1.8c-.4.8-.5 1.8-.3 2.7.3.9.9 1.7 1.7 2.1l1.7.9c1.7.9 3.9.2 4.8-1.5l.9-1.8c.8-1.7 2.3-2.9 4.1-3.4z"/><path class="st0" d="M681.3 220.4c-15.1 4.6-31.1-3.9-35.7-19-4.6-15.1 3.9-31.1 19-35.7 15.1-4.6 31.1 3.9 35.7 19 4.6 15.1-3.9 31.1-19 35.7zm-15.6-51.2c-13.2 4-20.6 18-16.6 31.2s18 20.6 31.2 16.6 20.6-18 16.6-31.2-18.1-20.6-31.2-16.6z"/><path class="st0" d="M677.1 206.7c-7.5 2.3-15.5-2-17.8-9.5-2.3-7.5 2-15.5 9.5-17.8 7.5-2.3 15.5 2 17.8 9.5s-1.9 15.5-9.5 17.8zm-7.3-23.9c-5.6 1.7-8.8 7.7-7.1 13.4s7.7 8.8 13.4 7.1c5.6-1.7 8.8-7.7 7.1-13.4-1.7-5.6-7.7-8.8-13.4-7.1z"/><path class="st0" d="M666.7 196.9c-.9.3-1.9-.2-2.2-1.2-1.4-4.7 1.2-9.7 5.9-11.1.9-.3 1.9.2 2.2 1.2.3.9-.2 1.9-1.2 2.2-2.8.9-4.4 3.9-3.6 6.7.3.9-.2 1.9-1.1 2.2z"/></g></svg>