<svg xmlns="http://www.w3.org/2000/svg" viewBox="0 0 40 32" class="sw--svg"><path fill="#0072ba" d="M12.9 26.5H1.3V26c-.3-3.6 0-4.1.1-4.2.5-.7 3.9-2 6.8-3v-1.2s0-.4-.4-1.2c-.2-.4-.4-.8-.5-1.2 0-.1-.1-.3-.1-.3-.4-.4-.6-1.3-.6-2.1 0-.3-.1-.7-.1-1.1-.1-.4-.1-.9-.1-1.3V8.2c0-.4.1-2 1.6-3.3 1.8-1.6 4.2-1.1 5.4-.9h.1c1.5.3 2.8 2.4 3.1 3.8.1.7 0 2.9 0 3.4.1.3.2 1 0 1.9-.1.4-.2.7-.4 1.1-.1.3-.2.5-.3.7 0 .1-.1.3-.1.5-.1.2-.1.5-.2.6-.2.6-.5 1.3-.7 1.6v1.1l6.3 2.2-1.7.5s-4.3 1.4-5.8 2.2c-1.2.6-.9 2-.9 2.1l.1.8zM2.4 25.3h9.2c0-.9.4-2 1.6-2.6 1-.5 2.9-1.2 4.3-1.7l-3.8-1.3v-2.2l.1-.1s.5-.9.7-1.6c0-.1.1-.3.1-.5s.1-.4.1-.5c.1-.3.2-.6.4-.9.1-.3.3-.6.3-.9.1-.4.1-.9 0-1.3v-.2c.1-1 .1-2.7 0-3.2-.3-1.3-1.4-2.9-2.2-3.1h-.1c-1.1-.2-3-.6-4.4.6-1.1 1-1.2 2.1-1.2 2.4v2.2c0 .3.1.7.1 1.1.1.4.1.9.1 1.3 0 .6.2 1.1.3 1.3.2.2.3.5.4.8.1.3.2.6.4 1 .5 1 .5 1.6.5 1.7v2.1l-.4.1c-2.8.9-6 2.2-6.6 2.6 0 .4 0 1.7.1 2.9z"/><path d="M37.3 29.5H11.7l-.1-.7c-.4-4.5 0-5.1.1-5.3.6-.9 4.9-2.5 8.6-3.7v-1.6s0-.5-.5-1.5l-.6-1.5c-.1-.2-.1-.4-.2-.4-.5-.5-.8-1.6-.8-2.6 0-.4-.1-.9-.1-1.4-.1-.5-.1-1.1-.2-1.6V6.6c0-.6.1-2.5 2.1-4.2 2.3-2 5.2-1.4 6.8-1.1h.1c1.9.4 3.5 3 3.9 4.8.2.9.1 3.6 0 4.3.1.4.3 1.2 0 2.4-.1.5-.3.9-.5 1.4-.1.3-.3.6-.4.9 0 .1-.1.4-.1.6-.1.3-.1.5-.2.8-.2.7-.5 1.4-.9 2v1.4c3.6 1.1 7.7 2.5 8.3 3.4.7 1 .5 4.2.4 5.6l-.1.6zM13.1 28H36c.1-1.8 0-3.5-.2-3.9-.6-.5-4.6-2-8-3l-.5-.2v-2.8l.1-.2s.6-1.2.9-2c0-.1.1-.4.2-.6 0-.2.1-.5.2-.7.1-.4.3-.8.4-1.1.2-.4.3-.7.4-1.1.2-1 0-1.7 0-1.7v-.2c.1-1.2.1-3.4 0-4C29 5 27.7 3 26.6 2.8h-.1c-1.4-.3-3.8-.8-5.5.8-1.4 1.2-1.5 2.6-1.5 3v2.7c0 .4.1.9.1 1.4.1.5.2 1.1.2 1.6 0 .7.3 1.4.4 1.6.3.3.4.6.5 1 .1.3.2.7.5 1.3.6 1.3.7 2 .7 2.1v2.6l-.5.2c-3.5 1.2-7.6 2.7-8.3 3.3-.2.4-.2 2.1 0 3.6z"/></svg>