<svg xmlns="http://www.w3.org/2000/svg" viewBox="0 0 36 36" aria-hidden="true" height="16" width="16" class="icon--svg icon--share-instagram"><g fill-rule="evenodd"><path d="M0 18C0 8.06 8.06 0 18 0s18 8.06 18 18-8.06 18-18 18S0 27.94 0 18zm34 0c0-8.837-7.163-16-16-16S2 9.163 2 18s7.163 16 16 16 16-7.163 16-16z"/><path d="M21.96 9h-8.02A4.945 4.945 0 0 0 9 13.94v8.02a4.945 4.945 0 0 0 4.94 4.94h8.02a4.945 4.945 0 0 0 4.94-4.94v-8.02A4.945 4.945 0 0 0 21.96 9zm3.353 12.96a3.356 3.356 0 0 1-3.352 3.352H13.94a3.355 3.355 0 0 1-3.352-3.351V13.94a3.356 3.356 0 0 1 3.352-3.352h8.02a3.356 3.356 0 0 1 3.353 3.352v8.02z"/><path d="M17.95 13.338a4.618 4.618 0 0 0-4.612 4.613 4.618 4.618 0 0 0 4.612 4.612 4.618 4.618 0 0 0 4.613-4.612 4.618 4.618 0 0 0-4.613-4.613zm0 7.637c-1.667 0-3.024-1.357-3.024-3.025s1.357-3.024 3.024-3.024c1.668 0 3.025 1.357 3.025 3.024s-1.357 3.025-3.025 3.025zm4.806-8.984a1.17 1.17 0 0 0-1.164 1.165c0 .306.125.607.342.824.216.216.516.34.822.34.307 0 .607-.124.824-.34a1.17 1.17 0 0 0 0-1.648 1.17 1.17 0 0 0-.824-.34z"/></g></svg>