<svg xmlns="http://www.w3.org/2000/svg" viewBox="0 0 512 512" height="20" width="20"><path d="m494.396 427.943-99.625-99.625 13.285-13.284-13.213-13.213-39.815 39.816-66.417-66.417 79.806-79.807c10.747 3.875 21.845 5.814 33.296 5.814 26.32 0 51.055-10.218 69.676-28.77 28.61-28.732 36.714-71.49 20.683-108.838l-5.46-12.756-42.81 42.81-34.442.476.458-32.91 43.655-43.69-12.684-5.46c-12.42-5.374-25.65-8.105-39.286-8.105-26.285 0-51.002 10.218-69.588 28.84-27.236 27.13-35.99 66.944-23.08 102.884l-79.805 79.805L116.1 102.588l13.284-13.337L56.22 16.23 16.227 56.043 89.25 129.12l13.267-13.285 112.927 112.927-79.806 79.806c-10.676-3.875-21.845-5.78-33.297-5.78-26.284 0-51.02 10.272-69.622 28.858C3.966 360.326-4.172 403.102 12 440.45l5.515 12.684 43.638-43.62 32.856-.44-.477 34.353-42.81 42.81 12.72 5.46c12.402 5.286 25.58 8.104 39.11 8.104 26.337 0 51.053-10.217 69.64-28.89 27.2-27.272 35.94-66.946 23.15-102.833l79.805-79.806L341.6 354.69l-39.99 39.85 13.212 13.266 13.213-13.3 99.608 99.607c8.88 8.845 20.683 13.742 33.226 13.742s24.31-4.897 33.26-13.74c18.323-18.323 18.323-48.096 0-66.418l.09.035z"/></svg>