<svg xmlns="http://www.w3.org/2000/svg" viewBox="0 0 36 36" aria-hidden="true" height="16" width="16" class="icon--svg icon--share-twitter"><path fill-rule="evenodd" d="M0 18C0 8.06 8.06 0 18 0s18 8.06 18 18-8.06 18-18 18S0 27.94 0 18zm34 0c0-8.837-7.163-16-16-16S2 9.163 2 18s7.163 16 16 16 16-7.163 16-16zm-7.23-5.248c-.657.29-1.354.48-2.067.564a3.608 3.608 0 0 0 1.582-1.98c-.707.416-1.48.71-2.285.868a3.611 3.611 0 0 0-4.32-.703 3.587 3.587 0 0 0-1.81 3.974 10.235 10.235 0 0 1-7.42-3.745 3.58 3.58 0 0 0 1.115 4.785 3.581 3.581 0 0 1-1.63-.448v.046a3.59 3.59 0 0 0 2.886 3.516 3.626 3.626 0 0 1-1.622.063 3.602 3.602 0 0 0 3.362 2.493 7.25 7.25 0 0 1-5.328 1.484 10.248 10.248 0 0 0 5.518 1.61c6.62 0 10.238-5.463 10.238-10.2 0-.156-.004-.31-.01-.465a7.355 7.355 0 0 0 1.793-1.86z"/></svg>