<svg xmlns="http://www.w3.org/2000/svg" viewBox="0 0 34 21"><path d="M25.34 20.87a3.26 3.26 0 0 1-3.26-3.2v-.12h-11a3.26 3.26 0 0 1-3.2 3.32H7.8a3.27 3.27 0 0 1-3.26-3.2v-.12H2v-1.3h2.84a3.28 3.28 0 0 1 2.9-1.9 3.31 3.31 0 0 1 3 1.9h8.69V1.3H9.1V0h11.65v4.55h4.57a1.94 1.94 0 0 1 1.61.86L29 9.12h.27a1.93 1.93 0 0 1 2 1.88 2.81 2.81 0 0 1 0 .29v4.31a2 2 0 0 1-1.95 2h-.6v.64h-.12a3.26 3.26 0 0 1-3.15 2.68zm.06-5.22a2 2 0 1 0 0 3.92 2 2 0 0 0 1.92-2v-.44a2 2 0 0 0-1.92-1.48zm-17.59 0a2 2 0 1 0 2 1.92 2 2 0 0 0-2-1.92zm20.55.6h.89a.65.65 0 0 0 .65-.65V11a.63.63 0 0 0-.64-.62h-1.04l-2.4-4.34a.67.67 0 0 0-.51-.23h-4.56v10.4h1.63a3.3 3.3 0 0 1 6 0zm-1.71-5.15h-5.2V9.8h3.8l-1.09-1.64 1.08-.72 1.41 2.11zm-15.6-2H0V7.8h11.05zM15 5.2H5.2V3.9H15zm-11.1 0H2.6V3.9h1.3zm3.9-3.9H6.5V0h1.3z"/></svg>