<svg xmlns="http://www.w3.org/2000/svg" viewBox="0 0 36 36" aria-hidden="true" height="16" width="16" class="icon--svg icon--share-facebook"><path fill-rule="evenodd" d="M0 18C0 8.06 8.06 0 18 0s18 8.06 18 18-8.06 18-18 18S0 27.94 0 18zm34 0c0-8.837-7.163-16-16-16S2 9.163 2 18s7.163 16 16 16 16-7.163 16-16zm-14.848.638h3.04l.454-3.53h-3.494v-2.25c0-1.022.283-1.72 1.752-1.72h1.866v-3.15a24.537 24.537 0 0 0-2.723-.14c-2.694 0-4.54 1.644-4.54 4.663v2.605h-3.045v3.528h3.046v9.052h3.645V18.64z"/></svg>