<svg xmlns="http://www.w3.org/2000/svg" viewBox="0 0 36 36" aria-hidden="true" height="16" width="16" class="icon--svg icon--share-youtube"><g fill-rule="evenodd"><path d="M0 18C0 8.06 8.06 0 18 0s18 8.06 18 18-8.06 18-18 18S0 27.94 0 18zm34 0c0-8.837-7.163-16-16-16S2 9.163 2 18s7.163 16 16 16 16-7.163 16-16z"/><path d="M27.974 16.737a24.005 24.005 0 0 0-.095-1.597 15.22 15.22 0 0 0-.24-1.726 2.758 2.758 0 0 0-.774-1.44 2.332 2.332 0 0 0-1.389-.678c-1.65-.195-4.145-.292-7.483-.292-3.339 0-5.833.097-7.484.292a2.306 2.306 0 0 0-1.383.679c-.394.39-.65.87-.77 1.439a13.552 13.552 0 0 0-.25 1.726 24.125 24.125 0 0 0-.095 1.597A104.96 104.96 0 0 0 8 18.492c0 .75.004 1.334.011 1.755.008.422.04.954.095 1.598.056.643.136 1.219.24 1.726.119.57.377 1.049.775 1.439.398.39.86.616 1.388.679 1.65.195 4.145.292 7.484.292 3.338 0 5.832-.097 7.483-.292a2.306 2.306 0 0 0 1.383-.68c.394-.39.65-.87.77-1.438.11-.507.194-1.083.25-1.726a24.21 24.21 0 0 0 .095-1.597c.007-.421.011-1.007.011-1.756 0-.749-.003-1.334-.01-1.755zm-6.033 2.387-5.71 3.744a.615.615 0 0 1-.38.117.743.743 0 0 1-.345-.093c-.246-.14-.368-.359-.368-.655v-7.489c0-.296.122-.515.368-.655.253-.14.494-.133.725.023l5.71 3.745c.223.132.334.343.334.631 0 .289-.111.5-.334.632z"/></g></svg>