<svg xmlns="http://www.w3.org/2000/svg" viewBox="0 0 61 61" class="sw--svg"><path d="M15.2 38.9c-.3.8-.3 1.7 0 2.5s.9 1.4 1.7 1.7l9.5 3.9c.4.2.8.2 1.2.2 1.3 0 2.4-.8 2.9-2 .3-.8.3-1.7 0-2.4-.3-.8-.9-1.4-1.7-1.7l-9.5-3.9c-.4-.2-.8-.2-1.2-.2-1.3-.1-2.5.7-2.9 1.9zm13 5.3c-.1.3-.5.5-.8.4l-9.5-3.9c-.3-.1-.5-.5-.3-.9.1-.2.3-.4.6-.4h.2l9.5 3.9c.2.2.4.6.3.9l.2.1-.2-.1zm29.8 0c-.1-.8-.5-1.6-1.1-2.1l-7.6-6.2c-.4-.4-1-.6-1.5-.7.9-2.3 1.1-4.9.3-7.2-.3-1.1-.9-2.1-1.6-3.1 2.8-4.8-.7-9.2-.8-9.4-.2-.3-.6-.4-.9-.5-.3 0-.7.1-.9.4-1.7 1.7-3.3 2.6-4.5 2.6h-.1c-.7 0-1.3-.3-1.8-.8l5-12.8c.2-.5 0-1.1-.4-1.4v-.1L36.4.6c-.3-.1-.6-.1-1 0s-.6.4-.7.7L30 13c-.6.2-2 .5-3.2-.2-1.2-.8-2-2.6-2.3-5.3 0-.4-.2-.7-.5-.9-.3-.2-.7-.3-1-.2-.2 0-3.7.9-5.5 4.2-1.2 2.3-1.2 5.2.1 8.6 0 .1 1.1 2.2-2.4 4.4-.4.3-.9.5-1.5.8l-.1.1c-3.2 1.8-7.9 4.4-10.3 10.2-3.9 9.8 1.1 18.9 13.1 23.8 3.2 1.3 6.4 2 9.5 2 4.7 0 8.9-1.6 12.2-4.7 4.2-4 6.2-10.1 4.9-15.2.6-.3 1.1-.7 1.6-1.1.2.5.5.8.8 1.1l7.6 6.2c.5.4 1.2.7 1.9.7.9 0 1.8-.4 2.4-1.1.5-.6.7-1.4.7-2.2zm-11.1-6.3c.1-.1.3-.2.4-.2.1 0 .3 0 .4.1l7.6 6.2c.2.2.3.5.1.8l.2.2-.2-.2c-.2.2-.5.3-.8.1L47 38.7c-.1-.1-.2-.2-.2-.4 0-.1 0-.3.1-.4zM30.7 17.6l5.8-14.2 3.1 1.3L34 18.9l-3.3-1.3zM20 18.8c-.1-.3-.2-.5-.2-.6-1-2.6-1-4.7-.2-6.3.6-1.2 1.7-2 2.5-2.4.5 2.7 1.6 4.5 3.2 5.5 1 .6 2.1.9 3.4.8l-.4 1.1c-1.8-.1-3.5.9-4.2 2.6-.9 2.1.2 4.6 2.3 5.5l2.4 1c-.4.7-.8 1.5-1 2.3l-2.3-1c-1-.4-2.1-.4-3.2 0-1 .4-1.8 1.2-2.2 2.3-.9 2.1.2 4.6 2.3 5.5l5.6 2.3c.5.2.9.3 1.4.3.8 1.1 1.9 2.1 3.2 2.8-.2.2-.5.3-.7.6-.6.6-.9 1.5-.8 2.3 0 .9.4 1.6 1.1 2.2.6.5 1.3.8 2.1.8.9 0 1.8-.4 2.4-1.1.8-.9 1-2.3.5-3.4 1.1.1 2.2 0 3.4-.3.9 4.2-.8 9.1-4.3 12.4-4.7 4.4-11.6 5.3-19 2.2-5.2-2.1-9-5.2-11.1-8.8-2-3.6-2.3-7.6-.6-11.7 2-5 6.1-7.3 9.1-8.9.6-.3 1.2-.7 1.7-1 4.3-2.7 4-5.8 3.6-7zM44.7 23c-.6-.5-1.2-.9-1.8-1.2-1.5-.8-3.2-1.2-4.9-1.2-.4 0-.8 0-1.2.1-.2-.2-.4-.4-.6-.5l.2-.4c.8.6 1.7.9 2.7.9 1.7.1 3.5-.7 5.4-2.2.5.9 1 2.6.2 4.5zm-9.8 20.6c-.2.3-.7.3-1 .1-.1-.1-.2-.3-.2-.5s.1-.4.2-.5c.1-.1.3-.2.5-.2s.3.1.5.2c.2.2.2.6 0 .9zm-7.5-12.9c-.1 1.3.1 2.5.4 3.7v.1l-4.5-1.9c-.4-.2-.7-.5-.9-.9-.2-.4-.2-.9 0-1.3s.5-.7.9-.9c.2-.1.4-.1.7-.1.2 0 .4 0 .6.1l2.8 1.2zm3-6.9-3-1.2c-.8-.3-1.3-1.3-.9-2.2.2-.4.5-.7.9-.9.2-.1.4-.1.6-.1.2 0 .4 0 .6.1l5 2.1c-1.2.4-2.2 1.2-3.2 2.2zm3.8 14.6c-1.9-1-3.3-2.7-4-4.8-1.3-4.3 1.1-8.9 5.3-10.2.8-.2 1.6-.4 2.4-.4 1.3 0 2.6.3 3.8.9 1.9 1 3.3 2.7 4 4.8 1.3 4.3-1.1 8.9-5.3 10.2-2.1.7-4.3.6-6.2-.5z"/><path fill="#0072ba" d="m56.8 42-7.4-6.1c-.1-.1-.7-.6-1.5-.7.5-1.2.8-2.6.8-4 0-5.9-4.8-10.6-10.6-10.6-5.9 0-10.6 4.8-10.6 10.6 0 5.9 4.8 10.6 10.6 10.6 2.5 0 4.8-.9 6.6-2.4.2.5.5.9.7 1.1l7.8 6.4c.6.4 2.4 1.3 4.1-.5 1.2-1.2.7-3.4-.5-4.4zM38 39.2c-4.4 0-8-3.6-8-8s3.6-8 8-8 8 3.6 8 8c0 4.5-3.6 8-8 8zm17.3 5.7c-.3.2-.6.1-.8-.1L47 38.6c-.3-.2-.2-.7.1-.8.3-.2.5-.1.7 0 .1 0 7.5 6.2 7.5 6.2.2.3.3.7 0 .9zm-9.8-13.2c0 .6-.5 1-1 1-.6 0-1-.5-1-1 0-1.5-.5-3-1.6-4.1s-2.5-1.8-4-1.8c-.6 0-1-.5-1-1 0-.6.5-.9 1-1 2.1.1 4 .9 5.4 2.4 1.5 1.4 2.2 3.4 2.2 5.5z"/></svg>