<svg xmlns="http://www.w3.org/2000/svg" viewBox="0 0 512 512" height="22" width="22"><path d="M503.926 477.99 360.96 334.967c28.75-34.6 46.08-78.966 46.08-127.448 0-110.178-89.325-199.483-199.483-199.483C97.36 8.075 8.034 97.38 8.034 207.558c0 110.16 89.344 199.483 199.483 199.483 48.482 0 92.87-17.328 127.41-46.08L477.97 504.007l25.995-25.994h-.04zM29.066 207.52c0-98.403 80.05-178.47 178.47-178.47 98.384 0 178.413 80.048 178.413 178.47S305.88 385.97 207.555 385.97c-98.462 0-178.49-80.05-178.49-178.452z"/></svg>