<svg xmlns="http://www.w3.org/2000/svg" viewBox="0 0 24 30" class="sw--svg"><path d="M12 30c-.1 0-.2 0-.3-.1l-1.4-.8c-3.7-2.4-6.2-4.2-7.3-4.9-2-1.6-3.1-4.1-3-6.6V5.4c0-.1.1-.3.2-.4.1-.1.3-.1.4-.1l2.3.1h.2c2.4 0 5.8-2.3 7.2-3.5L11.6.2c.2-.2.5-.2.8 0l1.4 1.3C15 2.6 18.4 5 20.9 5h.3l2.2-.2c.1 0 .3 0 .4.1.1.1.2.2.2.4v12.2c.1 2.5-1 4.9-3 6.6-1.9 1.4-7.3 5-7.5 5.1l-1.2.7c-.1.1-.2.1-.3.1zM1.1 6v11.6c-.1 2.2.9 4.3 2.6 5.7.7.5 2.6 1.8 7.2 4.9l1.1.6.9-.5c.1-.1 5.6-3.7 7.4-5 1.7-1.4 2.6-3.5 2.5-5.7V5.9l-1.8.2c-3.1 0-6.9-2.8-8-3.8l-1-1-1 1c-.1.2-4.4 3.8-7.9 3.8h-.3L1.1 6zm10.6 14.5c-3.1 0-5.5-2.5-5.5-5.6 0-3.1 2.5-5.5 5.6-5.5 1.3 0 2.5.5 3.5 1.3.2.2.3.5.1.8-.2.2-.5.3-.8.1-1.9-1.6-4.7-1.3-6.3.6-.8.9-1.1 2.1-1 3.2.1 1.2.7 2.3 1.6 3 1.9 1.6 4.7 1.3 6.3-.6.7-.8 1-1.8 1-2.9 0-.2 0-.5-.1-.7 0-.3.2-.6.5-.6s.6.2.6.5 0 .6.1.8c0 2.9-2.2 5.3-5 5.5l-.6.1zm-.4-3.3-2.9-2.8c-.2-.2-.2-.6 0-.8.2-.2.5-.2.7 0l2.5 2.5 5.3-5.3c.2-.2.6-.2.8 0 .2.2.2.5 0 .7L12 17.2c-.1.1-.3.1-.4.1-.1.1-.2 0-.3-.1zM12 4.1c1.2 1 5.1 3.9 8.8 4v9.5c.1 1.5-.6 3-1.7 3.9-1.1.8-3.6 2.5-5.4 3.7-.7.5-1.3.9-1.6 1.1-3.5-2.3-6-4-7-4.7-1.2-1-1.8-2.5-1.7-4V8.1c3.5 0 7.4-3 8.6-4m0-1.3c-.1 0-.3 0-.4.1C11.6 3 7.1 7 3.2 7h-.6c-.1 0-.2 0-.3.1-.1.2-.2.3-.1.5v10c-.1 1.9.7 3.7 2.2 4.9 1.8 1.3 7.2 4.9 7.4 5 .1.1.2.1.3.1.2 0 .3-.1.4-.2.9-.6 5.6-3.7 7.3-5 1.4-1.2 2.2-3 2.2-4.8v-10c0-.1-.1-.3-.2-.4-.2-.1-.3-.2-.5-.2H21c-4 0-8.6-4-8.6-4-.1-.1-.3-.2-.4-.2z"/><path fill="#0072ba" d="M12 4.1c1.2 1 5.1 3.9 8.8 4v9.5c.1 1.5-.6 3-1.7 3.9-1.1.8-3.6 2.5-5.4 3.7-.7.5-1.3.9-1.6 1.1-3.5-2.3-6-4-7-4.7-1.2-1-1.8-2.5-1.7-4V8.1c3.5 0 7.4-3 8.6-4m0-1.3c-.1 0-.3 0-.4.1C11.6 3 7.1 7 3.2 7h-.6c-.1 0-.2 0-.3.1-.1.2-.2.3-.1.5v10c-.1 1.9.7 3.7 2.2 4.9 1.8 1.3 7.2 4.9 7.4 5 .1.1.2.1.3.1.2 0 .3-.1.4-.2.9-.6 5.6-3.7 7.3-5 1.4-1.2 2.2-3 2.2-4.8v-10c0-.1-.1-.3-.2-.4-.2-.1-.3-.2-.5-.2H21c-4 0-8.6-4-8.6-4-.1-.1-.3-.2-.4-.2z"/></svg>