<svg xmlns="http://www.w3.org/2000/svg" viewBox="0 0 34 34" class="sw--svg"><path d="M9.7 16.1c.2 1.1.8 3.6 1.8 4.4v1.1c-5.4 1.8-7.9 3.1-9.1 4.8l-.1.1c-.4.5-.8 1.1-1 3.8v.7h30.3l-.1-.7c-.3-2.6-.6-3.2-1-3.8l-.1.1.1-.1-.1-.1c-1.2-1.7-3.7-3-9.1-4.8v-1l.1-.1c.6-.6 1-1.4 1.2-2.2l.5-2.4c.6-.6 1-1.4 1-2.3.1-1.3-.2-2.3-.9-2.8 0-.2-.1-.5-.1-.7-.1-.4-.2-.8-.2-1-1-4.3-2.4-4.5-6.4-4.5S11 4.8 10 9.1c0 .3-.1.9-.2 1.3l-.1.4c-.7.4-1 1.5-.9 2.8 0 0 .2 1.5.9 2.5zM21.8 10v.2l-2.9-1.4-.3.1c-2.4 1.1-5 1.7-7.6 1.7.1-.4.2-.9.3-1.2.8-3.5 1.5-3.5 5.2-3.5s4.3 0 5.2 3.5c0 .1.1.3.1.6zM11 15.5v-.3l-.3-.1c-.4-.4-.7-.9-.7-1.5.1-1.1.4-1.7.5-1.7h.2c2.9 0 5.6-.6 8.3-1.7 1.2.6 2.3 1.2 3.6 1.7.1 0 .4.6.3 1.7 0 .6-.2 1.1-.7 1.5l-.3.1v.3c-.1.7-.2 1.4-.4 2.1s-1 1.9-1.1 2c-1.6 1.3-2.9 1.9-4 1.9h-.1c-1.1 0-2.4-.6-4-1.9-.8-.7-1.2-3.1-1.3-4.1zm9 6c.1 1.1-.3 2.3-1 3.2-.7.7-1.6 1-2.6 1s-1.9-.3-2.6-1a4.7 4.7 0 0 1-1-3.2c1.1.8 2.3 1.2 3.7 1.3 1.3-.1 2.5-.5 3.5-1.3zM2.6 29.7c.2-1.8.4-2.1.7-2.4l.1-.2c1-1.4 3.3-2.6 8.2-4.2a4.6 4.6 0 0 0 4.8 4c1.3.1 2.6-.4 3.5-1.3.7-.7 1.1-1.7 1.3-2.7 4.9 1.7 7.2 2.8 8.2 4.2l.1.2c.2.3.5.6.7 2.4H2.6z"/><path fill="#0072ba" d="M26 10.7c0-.1-.1-.2-.2-.3-.2-.2-.4-.5-.4-.8-.1-.9-.4-2.9-.9-3.9-.6-1-1.5-2.3-3.6-3.1-.9-.3-1.7-.5-2.9-.6-1.5-.1-3-.1-4.5.1-1.9.3-4.3 1.6-4.9 3-.3.8-.6 1.5-.8 2.2-.1.5-.2.9-.2 1.2l-.1.7c0 .2-.1.5-.2.8 0 .1-.1.2-.2.3-.3.4-.6.9-.6 1.5-.2 1.2 0 2.5.5 3.4.6 1.1 1.4 1.7 2.2 1.7.3 0 .5-.1.5-.1l.2-.1-.2-.9-.2-.4-.1.1h-.3c-.3 0-.5-.3-.9-.9v-.1c-.2-.4-.3-.8-.3-1.2-.1-.6-.1-1.1-.1-1.4.1-.4.2-.7.4-.9l.1-.1c.1-.1.2-.2.3-.4.2-.4.2-.9.2-1.1l.1-.5v-.3c0-.6.1-1.5.8-2.8.2-.3.3-.5.5-.7.8-.8 2.2-1.4 3.4-1.7 1.3-.2 2.7-.3 4-.2 3.6.3 4.9 1.7 5.7 3.1.4.7.7 2.4.8 3.3 0 .5.2 1 .5 1.4l.2.3c.2.4.3.7.2 1.6 0 .4-.1.6-.2 1.2l-.3 1c-.2.3-.4.5-.6.5h-.6l-.1.5s-.1.3-.4.6c-.4.3-.8.6-1.3.8-.9.4-1.9.8-2.9 1.1-.1 0-.3.1-.5.1h-.2l.8-.5-.1-.1c-.1-.2-.2-.3-.4-.5-.4-.3-.9-.4-1.4-.2-.7.2-1.2.9-1.1 1.8.1.3.5 1.1 1.3 1.2h.2c.4 0 .9-.1 1.2-.6l1.4-.3c.7-.2 1.3-.5 2-.8a6 6 0 0 0 2.3-1.9c.3 0 .5-.1.7-.3.6-.4 1-1 1.2-2 .5-2 .5-2.9 0-3.8zm-8.4 8.4c-.1.1-.2.2-.4.2-.1 0-.2-.1-.2-.3 0-.2.2-.3.3-.3.2 0 .3.1.3.1l.1.1h.1l-.2.2z"/></svg>