<svg xmlns="http://www.w3.org/2000/svg" class="assets-site-header__menu-cart-icon" viewBox="0 0 35 35" height="35" width="35"><path d="M26.9 29.6c0 1.5 1.2 2.7 2.7 2.7 1.5 0 2.7-1.2 2.7-2.7 0-1.5-1.2-2.7-2.7-2.7a2.732 2.732 0 0 0-2.7 2.7zm-18.8 0c0 1.5 1.2 2.7 2.7 2.7 1.5 0 2.7-1.2 2.7-2.7 0-1.5-1.2-2.7-2.7-2.7a2.732 2.732 0 0 0-2.7 2.7zM34.6 5.8c-.2-.3-.6-.4-.9-.4-1.2 0-1.3 1.2-1.3 1.2v9.2c0 .9-.5.9-1.4 1-1 .1-19.8 2.2-19.8 2.2L8.4 5.4c0-.1 0-.3-.1-.5 0-.3-.1-.5-.1-.6-.1-.3-.1-.4-.2-.6 0-.2-.1-.4-.3-.5-.1-.2-.2-.3-.4-.4-.2-.1-.4-.1-.6-.1H1.3c-.3 0-.7.1-.9.4-.5.5-.5 1.3 0 1.9.2.2.6.4.9.4h4.3l3.7 17.3c0 .1-.2.3-.4.8-.3.5-.5.9-.6 1.3-.1.3-.2.5-.2.8 0 .7.6 1.3 1.3 1.3H31c.7 0 1.3-.6 1.3-1.3s-.6-1.3-1.3-1.3H11.6c.2-.4.4-.9.5-1.3 0-.2 0-.3-.1-.5 0-.2-.1-.4-.1-.6 0-.2-.1-.4-.1-.5l22-2.6c.3 0 .6-.2.9-.5.2-.2.3-.6.3-.9V6.7c0-.3-.1-.7-.4-.9z"/><path d="M16.8 8.7c0-2.7 1.2-4.2 3.1-4.2C21.8 4.5 23 6 23 8.7s-1.1 4.2-3.1 4.2c-2-.1-3.1-1.6-3.1-4.2zm4.7-.1c0-1.9-.6-2.9-1.7-2.9s-1.7 1-1.7 2.9.6 2.9 1.7 2.9c1.1.1 1.7-.9 1.7-2.9z"/></svg>