<svg xmlns="http://www.w3.org/2000/svg" viewBox="0 0 34 22" class="sw--svg"><path d="M8.2 15.9c.9 0 1.7.5 2 1.3l.2.4v.6c0 1.2-1 2.2-2.2 2.2-1.2 0-2.2-1-2.2-2.2v-.6l.2-.4c.4-.8 1.2-1.3 2-1.3m17.6 0c.9 0 1.6.5 2 1.3l.2.5v.6c0 1.2-1 2.2-2.2 2.2-1.2 0-2.2-1-2.2-2.2v-.6l.2-.5c.3-.8 1.1-1.3 2-1.3M21.2.6H9.5v1.3h10.3v15h-8.7c-.5-1.1-1.6-1.9-2.9-1.9-1.3 0-2.4.8-2.9 1.9H2.4v1.3H5v.1c0 1.8 1.5 3.2 3.2 3.2s3.2-1.5 3.2-3.2v-.1h11c0 1.8 1.5 3.2 3.2 3.2 1.8 0 3.2-1.5 3.2-3.2h.7c1.1 0 2-.9 2-2v-4.6c0-1-.9-1.9-1.9-1.9h-.4L27.4 6c-.4-.5-1-.9-1.6-.9h-4.6V.6zm1.7 16.2h-1.7V6.4h4.6c.2 0 .4.1.5.2l2.4 4.3h1c.3 0 .6.3.6.6v4.6c0 .4-.3.7-.7.7h-1c-.5-1.1-1.6-1.9-2.9-1.9-1.2 0-2.3.8-2.8 1.9zM8.2.6H6.9v1.3h1.3V.6zm7.2 3.9H5.6v1.3h9.8V4.5zm-11.1 0H3v1.3h1.3V4.5zM25.7 8l-1.1.7 1.1 1.6h-3.8v1.3h5.2v-1.5L25.7 8zm-14.2.4H.5v1.3h11V8.4z"/><path fill="#0072ba" d="M21.9 8h3.8l1.4 2.1v1.6h-5.2V8zM8.2 16.8c-.8 0-1.4.6-1.4 1.4 0 .8.6 1.4 1.4 1.4s1.4-.6 1.4-1.4c0-.8-.6-1.4-1.4-1.4zm17.6 0c-.8 0-1.4.6-1.4 1.4s.6 1.4 1.4 1.4c.8 0 1.4-.6 1.4-1.4s-.7-1.4-1.4-1.4z"/></svg>