<svg xmlns="http://www.w3.org/2000/svg" width="39.959" height="29.38"><defs><filter id="b" x=".959" y="6" width="14" height="14" filterUnits="userSpaceOnUse"><feOffset dx="1" dy="2"/><feGaussianBlur stdDeviation="1" result="blur"/><feFlood flood-opacity=".161"/><feComposite operator="in" in2="blur"/><feComposite in="SourceGraphic"/></filter><filter id="c" x="25.959" y="6" width="14" height="14" filterUnits="userSpaceOnUse"><feOffset dx="1" dy="2"/><feGaussianBlur stdDeviation="1" result="blur-2"/><feFlood flood-opacity=".161"/><feComposite operator="in" in2="blur-2"/><feComposite in="SourceGraphic"/></filter><radialGradient id="a" cx=".5" cy=".423" r=".5" gradientUnits="objectBoundingBox"><stop offset="0" stop-color="#fff" stop-opacity=".2"/><stop offset=".7" stop-opacity="0"/><stop offset="1" stop-opacity=".2"/></radialGradient></defs><g data-name="Group 8"><path d="M18.937 24.012h-6.93a12.006 12.006 0 1 1 0-24.012h14.9a12.007 12.007 0 0 1 2.732 23.7v5.68z" fill="#caeaff"/><path d="M18.937 24.012h-6.93a12.006 12.006 0 1 1 0-24.012h14.9a12.007 12.007 0 0 1 2.732 23.7v5.68z" fill="url(#a)"/><path d="M12.116 1.755c4.08-.43 16.871-.541 17.03.97S16.769 6.798 12.694 7.228 5.186 6.782 5.027 5.27s3.014-3.085 7.089-3.515z" fill="rgba(255,255,255,0.27)"/><g transform="translate(2.959 7)"><g transform="translate(-2.96 -7)" filter="url(#b)"><circle data-name="Ellipse 11" cx="4" cy="4" r="4" transform="translate(2.96 7)"/></g><circle data-name="Ellipse 12" cx="1.5" cy="1.5" r="1.5" transform="translate(2 1)" fill="#fff"/></g><g transform="translate(27.959 7)"><g transform="translate(-27.96 -7)" filter="url(#c)"><circle data-name="Ellipse 11" cx="4" cy="4" r="4" transform="translate(27.96 7)"/></g><circle data-name="Ellipse 12" cx="1.5" cy="1.5" r="1.5" transform="translate(2 1)" fill="#fff"/></g></g></svg>