<svg xmlns="http://www.w3.org/2000/svg" viewBox="0 0 61 61" class="sw--svg">
                    <title>55-Point Guitar Inspection</title>
                    <path d="M15.2,38.9c-0.3,0.8-0.3,1.7,0,2.5c0.3,0.8,0.9,1.4,1.7,1.7l9.5,3.9c0.4,0.2,0.8,0.2,1.2,0.2 c1.3,0,2.4-0.8,2.9-2c0.3-0.8,0.3-1.7,0-2.4c-0.3-0.8-0.9-1.4-1.7-1.7l-9.5-3.9c-0.4-0.2-0.8-0.2-1.2-0.2 C16.8,36.9,15.6,37.7,15.2,38.9z M28.2,44.2c-0.1,0.3-0.5,0.5-0.8,0.4l-9.5-3.9c-0.3-0.1-0.5-0.5-0.3-0.9c0.1-0.2,0.3-0.4,0.6-0.4 c0.1,0,0.2,0,0.2,0l9.5,3.9C28.1,43.5,28.3,43.9,28.2,44.2l0.2,0.1L28.2,44.2z M58,44.2c-0.1-0.8-0.5-1.6-1.1-2.1l-7.6-6.2 c-0.4-0.4-1-0.6-1.5-0.7c0.9-2.3,1.1-4.9,0.3-7.2c-0.3-1.1-0.9-2.1-1.6-3.1c2.8-4.8-0.7-9.2-0.8-9.4c-0.2-0.3-0.6-0.4-0.9-0.5 c-0.3,0-0.7,0.1-0.9,0.4c-1.7,1.7-3.3,2.6-4.5,2.6c0,0-0.1,0-0.1,0c-0.7,0-1.3-0.3-1.8-0.8l5-12.8c0.2-0.5,0-1.1-0.4-1.4l0-0.1 l-5.7-2.3c-0.3-0.1-0.6-0.1-1,0C35,0.7,34.8,1,34.7,1.3l-4.7,11.7c-0.6,0.2-2,0.5-3.2-0.2c-1.2-0.8-2-2.6-2.3-5.3 c0-0.4-0.2-0.7-0.5-0.9c-0.3-0.2-0.7-0.3-1-0.2c-0.2,0-3.7,0.9-5.5,4.2c-1.2,2.3-1.2,5.2,0.1,8.6c0,0.1,1.1,2.2-2.4,4.4 c-0.4,0.3-0.9,0.5-1.5,0.8l-0.1,0.1c-3.2,1.8-7.9,4.4-10.3,10.2c-3.9,9.8,1.1,18.9,13.1,23.8c3.2,1.3,6.4,2,9.5,2 c4.7,0,8.9-1.6,12.2-4.7c4.2-4,6.2-10.1,4.9-15.2c0.6-0.3,1.1-0.7,1.6-1.1c0.2,0.5,0.5,0.8,0.8,1.1l7.6,6.2c0.5,0.4,1.2,0.7,1.9,0.7 c0.9,0,1.8-0.4,2.4-1.1C57.8,45.8,58,45,58,44.2z M46.9,37.9c0.1-0.1,0.3-0.2,0.4-0.2c0.1,0,0.3,0,0.4,0.1l7.6,6.2 c0.2,0.2,0.3,0.5,0.1,0.8l0.2,0.2l0,0l-0.2-0.2c-0.2,0.2-0.5,0.3-0.8,0.1L47,38.7c-0.1-0.1-0.2-0.2-0.2-0.4 C46.8,38.2,46.8,38,46.9,37.9z M30.7,17.6l5.8-14.2l3.1,1.3L34,18.9L30.7,17.6z M20,18.8c-0.1-0.3-0.2-0.5-0.2-0.6 c-1-2.6-1-4.7-0.2-6.3c0.6-1.2,1.7-2,2.5-2.4c0.5,2.7,1.6,4.5,3.2,5.5c1,0.6,2.1,0.9,3.4,0.8l-0.4,1.1c-1.8-0.1-3.5,0.9-4.2,2.6 c-0.9,2.1,0.2,4.6,2.3,5.5l2.4,1c-0.4,0.7-0.8,1.5-1,2.3l-2.3-1c-1-0.4-2.1-0.4-3.2,0c-1,0.4-1.8,1.2-2.2,2.3 c-0.9,2.1,0.2,4.6,2.3,5.5l5.6,2.3c0.5,0.2,0.9,0.3,1.4,0.3c0.8,1.1,1.9,2.1,3.2,2.8c-0.2,0.2-0.5,0.3-0.7,0.6 c-0.6,0.6-0.9,1.5-0.8,2.3c0,0.9,0.4,1.6,1.1,2.2c0.6,0.5,1.3,0.8,2.1,0.8c0.9,0,1.8-0.4,2.4-1.1c0.8-0.9,1-2.3,0.5-3.4 c1.1,0.1,2.2,0,3.4-0.3c0.9,4.2-0.8,9.1-4.3,12.4c-4.7,4.4-11.6,5.3-19,2.2c-5.2-2.1-9-5.2-11.1-8.8c-2-3.6-2.3-7.6-0.6-11.7 c2-5,6.1-7.3,9.1-8.9c0.6-0.3,1.2-0.7,1.7-1C20.7,23.1,20.4,20,20,18.8z M44.7,23c-0.6-0.5-1.2-0.9-1.8-1.2 c-1.5-0.8-3.2-1.2-4.9-1.2c-0.4,0-0.8,0-1.2,0.1c-0.2-0.2-0.4-0.4-0.6-0.5l0.2-0.4c0.8,0.6,1.7,0.9,2.7,0.9h0 c1.7,0.1,3.5-0.7,5.4-2.2C45,19.4,45.5,21.1,44.7,23z M34.9,43.6c-0.2,0.3-0.7,0.3-1,0.1c-0.1-0.1-0.2-0.3-0.2-0.5 c0-0.2,0.1-0.4,0.2-0.5c0.1-0.1,0.3-0.2,0.5-0.2c0.2,0,0.3,0.1,0.5,0.2C35.1,42.9,35.1,43.3,34.9,43.6z M27.4,30.7 c-0.1,1.3,0.1,2.5,0.4,3.7c0,0,0,0,0,0.1l-4.5-1.9c-0.4-0.2-0.7-0.5-0.9-0.9c-0.2-0.4-0.2-0.9,0-1.3c0.2-0.4,0.5-0.7,0.9-0.9 c0.2-0.1,0.4-0.1,0.7-0.1c0.2,0,0.4,0,0.6,0.1L27.4,30.7z M30.4,23.8l-3-1.2c-0.8-0.3-1.3-1.3-0.9-2.2c0.2-0.4,0.5-0.7,0.9-0.9 c0.2-0.1,0.4-0.1,0.6-0.1c0.2,0,0.4,0,0.6,0.1l5,2.1C32.4,22,31.4,22.8,30.4,23.8z M34.2,38.4c-1.9-1-3.3-2.7-4-4.8 c-1.3-4.3,1.1-8.9,5.3-10.2c0.8-0.2,1.6-0.4,2.4-0.4c1.3,0,2.6,0.3,3.8,0.9c1.9,1,3.3,2.7,4,4.8c1.3,4.3-1.1,8.9-5.3,10.2 C38.3,39.6,36.1,39.5,34.2,38.4z"></path>
                    <path fill="#0072ba" d="M56.8,42l-7.4-6.1c-0.1-0.1-0.7-0.6-1.5-0.7c0.5-1.2,0.8-2.6,0.8-4 c0-5.9-4.8-10.6-10.6-10.6c-5.9,0-10.6,4.8-10.6,10.6c0,5.9,4.8,10.6,10.6,10.6c2.5,0,4.8-0.9,6.6-2.4c0.2,0.5,0.5,0.9,0.7,1.1 l7.8,6.4c0.6,0.4,2.4,1.3,4.1-0.5C58.5,45.2,58,43,56.8,42z M38,39.2c-4.4,0-8-3.6-8-8c0-4.4,3.6-8,8-8c4.4,0,8,3.6,8,8 C46,35.7,42.4,39.2,38,39.2z M55.3,44.9c-0.3,0.2-0.6,0.1-0.8-0.1l-7.5-6.2c-0.3-0.2-0.2-0.7,0.1-0.8c0.3-0.2,0.5-0.1,0.7,0 c0.1,0,7.5,6.2,7.5,6.2C55.5,44.3,55.6,44.7,55.3,44.9z M45.5,31.7c0,0.6-0.5,1-1,1c-0.6,0-1-0.5-1-1c0-1.5-0.5-3-1.6-4.1 s-2.5-1.8-4-1.8c-0.6,0-1-0.5-1-1c0-0.6,0.5-0.9,1-1l0,0c2.1,0.1,4,0.9,5.4,2.4C44.8,27.6,45.5,29.6,45.5,31.7z"></path>
                </svg>
