<svg xmlns="http://www.w3.org/2000/svg" viewBox="0 0 34 22" class="sw--svg">
                    <title>Fast, Free Shipping</title>
                    <path d="M8.2,15.9c0.9,0,1.7,0.5,2,1.3l0.2,0.4l0,0.5c0,0,0,0.1,0,0.1c0,1.2-1,2.2-2.2,2.2 c-1.2,0-2.2-1-2.2-2.2l0,0l0-0.1l0-0.5l0.2-0.4C6.6,16.4,7.4,15.9,8.2,15.9 M25.8,15.9c0.9,0,1.6,0.5,2,1.3l0.2,0.5l0,0.5l0,0.1l0,0 c0,1.2-1,2.2-2.2,2.2c-1.2,0-2.2-1-2.2-2.2l0,0l0-0.1l0-0.5l0.2-0.5C24.1,16.4,24.9,15.9,25.8,15.9 M21.2,0.6H9.5v1.3h10.3v15h-8.7 c-0.5-1.1-1.6-1.9-2.9-1.9c-1.3,0-2.4,0.8-2.9,1.9H2.4v1.3l2.6,0c0,0,0,0,0,0.1c0,1.8,1.5,3.2,3.2,3.2s3.2-1.5,3.2-3.2 c0,0,0,0,0-0.1l11,0c0,0,0,0,0,0c0,1.8,1.5,3.2,3.2,3.2c1.8,0,3.2-1.5,3.2-3.2c0,0,0,0,0,0l0.7,0c1.1,0,2-0.9,2-2v-4.3 c0-0.1,0-0.2,0-0.3c0,0,0,0,0,0c0-1-0.9-1.9-1.9-1.9c0,0,0,0-0.1,0h-0.3L27.4,6c-0.4-0.5-1-0.9-1.6-0.9h-4.6V0.6L21.2,0.6z M22.9,16.8l-1.7,0V6.4h4.6c0,0,0,0,0,0c0.2,0,0.4,0.1,0.5,0.2l2.4,4.3h1c0,0,0,0,0,0c0,0,0,0,0,0c0.3,0,0.6,0.3,0.6,0.6v4.6 c0,0.4-0.3,0.7-0.7,0.7l-1,0c-0.5-1.1-1.6-1.9-2.9-1.9C24.5,14.9,23.4,15.7,22.9,16.8L22.9,16.8z M8.2,0.6H6.9v1.3h1.3V0.6L8.2,0.6z M15.4,4.5H5.6v1.3h9.8V4.5L15.4,4.5z M4.3,4.5H3v1.3h1.3V4.5L4.3,4.5z M25.7,8l-1.1,0.7l1.1,1.6h-3.8v1.3h5.2v-1.5L25.7,8L25.7,8z M11.5,8.4h-11v1.3h11V8.4L11.5,8.4z"></path>
                    <path fill="#0072ba" d="M21.9,8h3.8l1.4,2.1l0,1.6h-5.2V8z M8.2,16.8c-0.8,0-1.4,0.6-1.4,1.4c0,0.8,0.6,1.4,1.4,1.4 s1.4-0.6,1.4-1.4C9.6,17.4,9,16.8,8.2,16.8z M25.8,16.8c-0.8,0-1.4,0.6-1.4,1.4s0.6,1.4,1.4,1.4c0.8,0,1.4-0.6,1.4-1.4 S26.5,16.8,25.8,16.8z"></path>
                </svg>
